<?xml version="1.0" encoding="UTF-8" standalone="no"?>
<!-- Created with Inkscape (http://www.inkscape.org/) -->

<svg
   version="1.1"
   id="svg1"
   width="106.46777"
   height="57.218933"
   viewBox="0 0 106.46778 57.218933"
   sodipodi:docname="beagley-ai-i2c2-pu.svg"
   inkscape:export-filename="beagley-ai-i2c2-pu.png"
   inkscape:export-xdpi="427"
   inkscape:export-ydpi="427"
   inkscape:version="1.3.2 (091e20e, 2023-11-25)"
   xmlns:inkscape="http://www.inkscape.org/namespaces/inkscape"
   xmlns:sodipodi="http://sodipodi.sourceforge.net/DTD/sodipodi-0.dtd"
   xmlns="http://www.w3.org/2000/svg"
   xmlns:svg="http://www.w3.org/2000/svg">
  <sodipodi:namedview
     id="namedview1"
     pagecolor="#ffffff"
     bordercolor="#000000"
     borderopacity="0.25"
     inkscape:showpageshadow="2"
     inkscape:pageopacity="0.0"
     inkscape:pagecheckerboard="0"
     inkscape:deskcolor="#d1d1d1"
     inkscape:zoom="4.1245089"
     inkscape:cx="53.218457"
     inkscape:cy="28.48824"
     inkscape:window-width="1792"
     inkscape:window-height="990"
     inkscape:window-x="0"
     inkscape:window-y="25"
     inkscape:window-maximized="1"
     inkscape:current-layer="svg1" />
  <defs
     id="defs1" />
  <g
     id="g8887"
     transform="translate(-5881.2921,-332.62109)">
    <path
       id="path9009"
       d="m 181.44,336.95999 v 5.12"
       style="fill:none;stroke:#ff0000;stroke-width:0.48;stroke-linecap:round;stroke-linejoin:round;stroke-miterlimit:10;stroke-dasharray:none;stroke-opacity:1"
       transform="translate(5712.8003)" />
    <path
       id="path9010"
       d="m 181.44,342.07999 v 0"
       style="fill:none;stroke:#ff0000;stroke-width:0.48;stroke-linecap:round;stroke-linejoin:round;stroke-miterlimit:10;stroke-dasharray:none;stroke-opacity:1"
       transform="translate(5712.8003)" />
    <path
       id="path9011"
       d="M 178.72,336.95999 H 184"
       style="fill:none;stroke:#ff0000;stroke-width:0.48;stroke-linecap:round;stroke-linejoin:round;stroke-miterlimit:10;stroke-dasharray:none;stroke-opacity:1"
       transform="translate(5712.8003)" />
    <path
       id="path9012"
       d="m 184,336.95999 v 0"
       style="fill:none;stroke:#ff0000;stroke-width:0.48;stroke-linecap:round;stroke-linejoin:round;stroke-miterlimit:10;stroke-dasharray:none;stroke-opacity:1"
       transform="translate(5712.8003)" />
    <path
       id="path9013"
       d="M 91.837209,0.03741172 1.1994961,-234.99966 H 35.335778 l 60.03277,171.036366 c 5.297012,13.241525 9.711182,26.207185 12.948242,38.621115 3.82562,-13.241525 8.2398,-25.93132 12.94825,-38.621115 l 62.38699,-171.036366 h 31.78206 L 123.61926,0.03741172 Z m 149.199091,0 V -234.99966 h 81.22081 c 17.95097,0 31.78205,1.10346 41.19896,3.31038 14.12536,3.86211 25.89649,9.65528 35.31339,17.65536 11.77114,10.48288 20.59948,23.7244 27.07361,39.72458 6.17984,16.27604 9.4169,35.03487 9.4169,56.27648 0,17.65537 -2.35422,33.655547 -7.06268,47.448803 -4.11989,13.241525 -9.12262,24.82786 -15.30247,34.207274 -6.47412,8.827683 -13.5368,16.000176 -21.18804,20.965748 -7.94551,5.241438 -17.36241,9.3794142 -28.25071,12.1380654 -11.18258,2.2069209 -23.54226,3.31038132 -37.66762,3.31038132 z M 272.81836,-27.5491 h 49.43875 c 15.59675,0 27.66216,-1.379325 36.49051,-4.413841 8.53407,-2.758652 15.59675,-6.896628 21.18803,-12.138065 7.06268,-7.172493 12.35969,-17.103637 16.47959,-29.793433 4.70845,-12.41393 7.06268,-27.586511 7.06268,-45.241881 0,-24.27613 -4.41418,-43.03495 -12.94825,-56.27648 -7.94551,-13.24153 -17.36242,-22.06921 -28.25071,-26.48305 -8.82835,-3.58625 -22.07088,-5.5173 -40.02185,-5.5173 H 272.81836 Z M 483.52161,0.03741172 V -234.99966 h 81.22081 c 17.95097,0 31.78205,1.10346 41.19896,3.31038 14.12536,3.86211 25.89649,9.65528 35.31339,17.65536 11.77113,10.48288 20.59948,23.7244 27.07361,39.72458 6.17984,16.27604 9.4169,35.03487 9.4169,56.27648 0,17.65537 -2.35423,33.655547 -7.06268,47.448803 -4.11989,13.241525 -9.12262,24.82786 -15.30247,34.207274 -6.47412,8.827683 -13.5368,16.000176 -21.18804,20.965748 -7.94551,5.241438 -17.36241,9.3794142 -28.25071,12.1380654 -11.18258,2.2069209 -23.54226,3.31038132 -37.66762,3.31038132 z M 515.30367,-27.5491 h 49.43875 c 15.59675,0 27.66216,-1.379325 36.49051,-4.413841 8.53407,-2.758652 15.59675,-6.896628 21.18803,-12.138065 7.06268,-7.172493 12.35969,-17.103637 16.47959,-29.793433 4.70845,-12.41393 7.06268,-27.586511 7.06268,-45.241881 0,-24.27613 -4.41418,-43.03495 -12.94825,-56.27648 -7.94551,-13.24153 -17.36242,-22.06921 -28.25071,-26.48305 -8.82835,-3.58625 -22.07088,-5.5173 -40.02185,-5.5173 H 515.30367 Z M 693.34203,65.141578 V 44.17583 H 884.03436 V 65.141578 Z M 911.9908,0.03741172 V -234.99966 h 30.60494 V 0.03741172 Z M 991.74021,-114.72248 c 0,-38.06938 10.59399,-68.41454 31.78209,-90.48375 21.188,-22.06921 48.2616,-33.10382 81.2208,-33.10382 21.188,0 40.3161,5.24144 57.6785,15.44845 17.951,10.48287 31.1935,24.82786 40.0219,43.03496 9.4169,18.48296 14.1253,39.44871 14.1253,62.89724 0,23.724404 -5.297,44.966017 -15.3024,64.00071 -9.4169,18.482963 -22.9538,32.827948 -40.0219,43.0349577 -17.3624,9.65527891 -36.1962,14.3449858 -56.5014,14.3449858 -22.9537,0 -42.9647,-4.965572 -60.0328,-15.4484465 -17.3624,-11.034604 -30.6049,-25.655455 -40.0218,-44.138418 -8.82839,-19.034693 -12.94829,-38.896981 -12.94829,-59.586869 z m 32.95919,1.10347 c 0,28.138237 7.3569,50.483311 22.3651,67.311083 14.7139,16.276041 33.5478,24.27613 56.5015,24.27613 23.5422,0 42.6703,-8.000089 57.6785,-24.27613 15.5968,-16.827772 23.5423,-40.276307 23.5423,-70.621473 0,-19.03469 -3.5314,-35.5866 -10.594,-49.65572 -6.4742,-14.62085 -15.8911,-25.65545 -28.2508,-33.10381 -11.7711,-8.00009 -25.6022,-12.13807 -41.1989,-12.13807 -22.0709,0 -40.9047,7.72423 -56.5015,23.17267 -15.891,14.89672 -23.5422,39.72458 -23.5422,75.03532 z M 1224.2201,65.141578 V 44.17583 h 190.6923 v 20.965748 z m 198.9321,-126.897952 28.2507,-4.413841 c 2.9428,17.103637 8.5341,29.241702 16.4796,36.414195 8.5341,6.620762 18.2452,9.931144 29.4278,9.931144 13.2425,0 24.7194,-4.413842 34.1363,-13.241526 9.4169,-9.379414 14.1254,-21.241614 14.1254,-35.310734 0,-13.241526 -4.4142,-24.27613 -12.9483,-33.103814 -8.8283,-8.82768 -19.7166,-13.24153 -32.9592,-13.24153 -5.5912,0 -12.3596,1.10347 -20.0109,3.31039 l 3.5314,-25.37959 c 1.4713,0.82759 2.9427,1.10346 4.7084,1.10346 11.7711,0 22.3652,-3.31039 31.7821,-9.93115 10.0054,-6.62076 15.3024,-16.5519 15.3024,-29.79343 0,-10.20701 -3.5313,-18.75883 -10.594,-25.37959 -7.0627,-7.17249 -16.1853,-11.03461 -27.0736,-11.03461 -11.7711,0 -21.7766,3.86212 -29.4278,11.03461 -7.0627,6.62076 -11.4769,17.10364 -12.9483,30.89689 l -29.4278,-4.41384 c 3.8256,-19.86229 11.7711,-34.759 23.5423,-45.24188 12.3597,-10.20701 28.2507,-15.44844 47.0845,-15.44844 12.3597,0 24.1308,2.75865 35.3134,7.72422 10.8883,5.24144 19.1281,12.68979 24.7194,22.06921 5.297,9.65528 8.2398,19.86229 8.2398,30.89689 0,10.48287 -2.9428,19.58642 -8.2398,27.58651 -5.5913,8.27595 -13.5368,14.89672 -23.5423,19.86229 13.2425,3.03452 23.8366,9.65528 31.7821,19.86229 7.6512,10.482872 11.7711,22.896802 11.7711,37.517653 0,20.689884 -7.6512,38.345251 -22.3652,52.966102 -15.0081,14.0691207 -33.842,20.9657485 -56.5014,20.9657485 -20.5995,0 -37.6676,-6.0690325 -51.793,-18.7588275 -13.5368,-12.41393 -20.8937,-28.138242 -22.3651,-47.4488 z M 1684.4713,0.03741172 1593.8336,-234.99966 h 34.1363 l 60.0327,171.036366 c 5.2971,13.241525 9.7112,26.207185 12.9483,38.621115 3.8256,-13.241525 8.2398,-25.93132 12.9482,-38.621115 l 62.387,-171.036366 h 31.7821 L 1716.2534,0.03741172 Z m 138.3108,-61.79378572 28.2507,-4.413841 c 2.9428,17.103637 8.5341,29.241702 16.4796,36.414195 8.5341,6.620762 18.2453,9.931144 29.4278,9.931144 13.2426,0 24.7194,-4.413842 34.1363,-13.241526 9.4169,-9.379414 14.1254,-21.241614 14.1254,-35.310734 0,-13.241526 -4.4142,-24.27613 -12.9483,-33.103814 -8.8283,-8.82768 -19.7166,-13.24153 -32.9591,-13.24153 -5.5913,0 -12.3597,1.10347 -20.011,3.31039 l 3.5314,-25.37959 c 1.4714,0.82759 2.9428,1.10346 4.7084,1.10346 11.7712,0 22.3652,-3.31039 31.7821,-9.93115 10.0054,-6.62076 15.3025,-16.5519 15.3025,-29.79343 0,-10.20701 -3.5314,-18.75883 -10.5941,-25.37959 -7.0626,-7.17249 -16.1853,-11.03461 -27.0736,-11.03461 -11.7711,0 -21.7766,3.86212 -29.4278,11.03461 -7.0627,6.62076 -11.4769,17.10364 -12.9482,30.89689 l -29.4279,-4.41384 c 3.8256,-19.86229 11.7712,-34.759 23.5423,-45.24188 12.3597,-10.20701 28.2507,-15.44844 47.0845,-15.44844 12.3597,0 24.1308,2.75865 35.3134,7.72422 10.8883,5.24144 19.1281,12.68979 24.7194,22.06921 5.297,9.65528 8.2398,19.86229 8.2398,30.89689 0,10.48287 -2.9428,19.58642 -8.2398,27.58651 -5.5913,8.27595 -13.5368,14.89672 -23.5423,19.86229 13.2425,3.03452 23.8366,9.65528 31.7821,19.86229 7.6512,10.482872 11.7711,22.896802 11.7711,37.517653 0,20.689884 -7.6512,38.345251 -22.3651,52.966102 -15.0082,14.0691207 -33.842,20.9657485 -56.5015,20.9657485 -20.5995,0 -37.6676,-6.0690325 -51.7929,-18.7588275 -13.5369,-12.41393 -20.8938,-28.138242 -22.3652,-47.4488 z m 0,0"
       style="fill:#000000;fill-opacity:1;fill-rule:nonzero;stroke:none"
       aria-label="VDD_IO_3V3"
       transform="matrix(0.013274,0,0,0.01416,5881.2765,335.99556)" />
    <path
       id="path10009"
       d="m 181.44,357.60001 1.44,1.6"
       style="fill:none;stroke:#0000ff;stroke-width:0.48;stroke-linecap:round;stroke-linejoin:round;stroke-miterlimit:10;stroke-dasharray:none;stroke-opacity:1"
       transform="translate(5712.8003)" />
    <path
       id="path10010"
       d="m 182.88,359.20001 v 0"
       style="fill:none;stroke:#0000ff;stroke-width:0.48;stroke-linecap:round;stroke-linejoin:round;stroke-miterlimit:10;stroke-dasharray:none;stroke-opacity:1"
       transform="translate(5712.8003)" />
    <path
       id="path10011"
       d="m 182.88,359.20001 -3.04,3.03998"
       style="fill:none;stroke:#0000ff;stroke-width:0.48;stroke-linecap:round;stroke-linejoin:round;stroke-miterlimit:10;stroke-dasharray:none;stroke-opacity:1"
       transform="translate(5712.8003)" />
    <path
       id="path10012"
       d="m 179.84,362.23999 v 0"
       style="fill:none;stroke:#0000ff;stroke-width:0.48;stroke-linecap:round;stroke-linejoin:round;stroke-miterlimit:10;stroke-dasharray:none;stroke-opacity:1"
       transform="translate(5712.8003)" />
    <path
       id="path10013"
       d="m 179.84,362.23999 3.04,3.20001"
       style="fill:none;stroke:#0000ff;stroke-width:0.48;stroke-linecap:round;stroke-linejoin:round;stroke-miterlimit:10;stroke-dasharray:none;stroke-opacity:1"
       transform="translate(5712.8003)" />
    <path
       id="path10014"
       d="m 182.88,365.44 v 0"
       style="fill:none;stroke:#0000ff;stroke-width:0.48;stroke-linecap:round;stroke-linejoin:round;stroke-miterlimit:10;stroke-dasharray:none;stroke-opacity:1"
       transform="translate(5712.8003)" />
    <path
       id="path10015"
       d="m 182.88,365.44 -3.04,3.04001"
       style="fill:none;stroke:#0000ff;stroke-width:0.48;stroke-linecap:round;stroke-linejoin:round;stroke-miterlimit:10;stroke-dasharray:none;stroke-opacity:1"
       transform="translate(5712.8003)" />
    <path
       id="path10016"
       d="m 179.84,368.48001 v 0"
       style="fill:none;stroke:#0000ff;stroke-width:0.48;stroke-linecap:round;stroke-linejoin:round;stroke-miterlimit:10;stroke-dasharray:none;stroke-opacity:1"
       transform="translate(5712.8003)" />
    <path
       id="path10017"
       d="m 179.84,368.48001 3.04,3.19998"
       style="fill:none;stroke:#0000ff;stroke-width:0.48;stroke-linecap:round;stroke-linejoin:round;stroke-miterlimit:10;stroke-dasharray:none;stroke-opacity:1"
       transform="translate(5712.8003)" />
    <path
       id="path10018"
       d="m 182.88,371.67999 v 0"
       style="fill:none;stroke:#0000ff;stroke-width:0.48;stroke-linecap:round;stroke-linejoin:round;stroke-miterlimit:10;stroke-dasharray:none;stroke-opacity:1"
       transform="translate(5712.8003)" />
    <path
       id="path10019"
       d="M 182.88,371.67999 181.44,373.12"
       style="fill:none;stroke:#0000ff;stroke-width:0.48;stroke-linecap:round;stroke-linejoin:round;stroke-miterlimit:10;stroke-dasharray:none;stroke-opacity:1"
       transform="translate(5712.8003)" />
    <path
       id="path10020"
       d="m 181.44,373.12 v 0"
       style="fill:none;stroke:#0000ff;stroke-width:0.48;stroke-linecap:round;stroke-linejoin:round;stroke-miterlimit:10;stroke-dasharray:none;stroke-opacity:1"
       transform="translate(5712.8003)" />
    <path
       id="path10021"
       d="M 25.838791,-0.09756356 V -235.13464 H 129.42475 c 21.18804,0 36.78478,2.20692 47.08452,6.62076 10.8883,4.41384 19.42237,12.13807 25.89649,23.17267 7.06268,10.48288 10.59402,21.79335 10.59402,34.20728 0,17.10363 -5.59129,31.44862 -16.47958,43.03495 -10.29974,11.03461 -26.77933,18.2071 -49.43875,20.96575 7.65123,4.41384 14.12535,8.551821 18.83381,12.138068 8.53407,8.275953 17.06814,18.482962 25.89649,30.896892 l 40.02184,64.00070644 H 192.98886 L 162.38392,-48.649823 c -9.41691,-13.793256 -17.36242,-24.551996 -23.54227,-32.000354 -5.59128,-8.000088 -10.59401,-13.51739 -15.30247,-16.551906 -4.70845,-2.758651 -9.4169,-4.689707 -14.12536,-5.517307 -3.23706,-0.55173 -8.82834,-1.10346 -16.479579,-1.10346 H 56.443733 V -0.09756356 Z M 56.443733,-131.40936 h 67.095447 c 14.12536,0 25.01366,-1.37932 32.95917,-4.41384 7.65124,-2.75865 13.5368,-7.17249 17.6567,-13.24152 4.70845,-6.62077 7.06268,-13.79326 7.06268,-22.06921 0,-11.03461 -4.41418,-19.86229 -12.94825,-26.48305 -7.94551,-7.1725 -20.59948,-11.03461 -37.66762,-11.03461 H 56.443733 Z M 407.22345,-27.684075 V -0.09756356 H 251.84452 c 0,-6.62076274 1.17711,-13.24152544 3.53134,-19.86228844 3.82561,-10.207009 10.00546,-20.414018 18.83381,-30.896892 8.53407,-10.20701 21.18803,-22.345075 37.66762,-36.414195 25.89649,-20.414021 42.96463,-36.690061 51.79298,-48.552261 9.4169,-12.41393 14.12535,-24.27613 14.12535,-35.31073 0,-11.58634 -4.41417,-21.24162 -12.94824,-28.68998 -7.94551,-8.00008 -18.53953,-12.13806 -31.78206,-12.13806 -14.12535,0 -25.60221,4.41384 -34.13628,13.24153 -7.94551,8.27595 -11.77113,19.58642 -11.77113,34.20727 l -29.42783,-3.31038 c 2.35423,-22.06921 9.71119,-38.62112 22.36515,-49.65572 13.24253,-11.58634 31.1935,-17.65537 54.14721,-17.65537 21.77659,0 39.43329,6.3449 52.97009,18.75883 13.24252,11.8622 20.01092,27.31064 20.01092,46.34534 0,8.82768 -2.05995,18.20709 -5.88556,27.58651 -4.1199,8.82768 -10.59402,18.48296 -20.01093,28.68997 -8.82835,9.65528 -23.24798,23.172669 -43.55318,40.828037 -17.36242,14.896716 -28.83928,24.82786 -34.13628,29.793432 -4.70846,5.241437 -8.82835,10.482874 -11.77114,15.448446 z M 528.76039,-0.09756356 V -56.374047 H 427.52865 v -26.48305 L 533.46884,-235.13464 h 23.54226 v 152.277543 h 31.78206 v 26.48305 H 557.0111 v 56.27648344 z m 0,-82.75953344 V -188.7893 l -72.98102,105.932203 z m 88.28348,20.965748 28.25072,-4.413842 c 2.94278,17.103637 8.53407,29.241702 16.47958,36.414195 8.53407,6.620763 18.24526,9.931144 29.42783,9.931144 13.24252,0 24.71938,-4.413842 34.13628,-13.241525 9.41691,-9.379414 14.12536,-21.241614 14.12536,-35.310735 0,-13.241525 -4.41417,-24.27613 -12.94824,-33.103818 -8.82835,-8.82768 -19.71665,-13.24152 -32.95917,-13.24152 -5.59129,0 -12.35969,1.10346 -20.01093,3.31038 l 3.53134,-25.37959 c 1.47139,0.8276 2.94279,1.10346 4.70846,1.10346 11.77113,0 22.36515,-3.31038 31.78205,-9.93114 10.00546,-6.62077 15.30247,-16.55191 15.30247,-29.79344 0,-10.207 -3.53134,-18.75882 -10.59402,-25.37959 -7.06268,-7.17249 -16.1853,-11.0346 -27.0736,-11.0346 -11.77113,0 -21.77659,3.86211 -29.42783,11.0346 -7.06268,6.62077 -11.47685,17.10364 -12.94824,30.8969 l -29.42783,-4.41384 c 3.82562,-19.86229 11.77113,-34.75901 23.54226,-45.24188 12.35969,-10.20701 28.25072,-15.44845 47.08453,-15.44845 12.35969,0 24.13082,2.75865 35.31339,7.72422 10.8883,5.24144 19.12809,12.6898 24.71938,22.06921 5.29701,9.65528 8.23979,19.86229 8.23979,30.8969 0,10.48287 -2.94278,19.58642 -8.23979,27.58651 -5.59129,8.27595 -13.5368,14.89671 -23.54226,19.86228 13.24252,3.03452 23.83654,9.65528 31.78205,19.86229 7.65124,10.482877 11.77113,22.896807 11.77113,37.517658 0,20.689883 -7.65123,38.345251 -22.36515,52.966102 -15.00819,14.0691204 -33.842,20.9657482 -56.50143,20.9657482 -20.59948,0 -37.66762,-6.0690324 -51.79298,-18.7588272 -13.5368,-12.413931 -20.89376,-28.138242 -22.36515,-47.4488 z m 0,0"
       style="fill:#000080;fill-opacity:1;fill-rule:nonzero;stroke:none"
       aria-label="R243"
       transform="matrix(0.013274,0,0,0.01416,5899.3557,361.91544)" />
    <path
       id="path10022"
       d="M 164.73814,-27.515223 V 0.07128821 H 9.3592068 c 0,-6.62076271 1.1771132,-13.24152521 3.5313392,-19.86228821 3.825618,-10.207009 10.005462,-20.414018 18.833811,-30.896893 8.53407,-10.207009 21.188037,-22.345074 37.667621,-36.414194 25.896489,-20.414023 42.964632,-36.690063 51.792982,-48.552263 9.4169,-12.41393 14.12535,-24.27613 14.12535,-35.31073 0,-11.58634 -4.41417,-21.24162 -12.94824,-28.68997 -7.94551,-8.00009 -18.53953,-12.13807 -31.782056,-12.13807 -14.125357,0 -25.602211,4.41384 -34.136281,13.24153 -7.945514,8.27595 -11.771132,19.58642 -11.771132,34.20727 l -29.427828,-3.31038 c 2.354226,-22.06921 9.711183,-38.62112 22.36515,-49.65572 13.242523,-11.58634 31.193498,-17.65537 54.147205,-17.65537 21.776592,0 39.433292,6.3449 52.970092,18.75883 13.24252,11.8622 20.01092,27.31065 20.01092,46.34534 0,8.82768 -2.05994,18.2071 -5.88556,27.58651 -4.1199,8.82768 -10.59402,18.48296 -20.01093,28.68997 -8.82834,9.65528 -23.24798,23.172671 -43.553183,40.828038 -17.362419,14.896716 -28.839272,24.827861 -34.136281,29.793433 -4.708453,5.241437 -8.828349,10.482874 -11.771132,15.448446 z M 209.76272,0.07128821 V -33.032525 h 32.95917 V 0.07128821 Z M 443.41968,-27.515223 V 0.07128821 H 288.04075 c 0,-6.62076271 1.17711,-13.24152521 3.53134,-19.86228821 3.82561,-10.207009 10.00546,-20.414018 18.83381,-30.896893 8.53407,-10.207009 21.18803,-22.345074 37.66762,-36.414194 25.89649,-20.414023 42.96463,-36.690063 51.79298,-48.552263 9.4169,-12.41393 14.12535,-24.27613 14.12535,-35.31073 0,-11.58634 -4.41417,-21.24162 -12.94824,-28.68997 -7.94552,-8.00009 -18.53953,-12.13807 -31.78206,-12.13807 -14.12535,0 -25.60221,4.41384 -34.13628,13.24153 -7.94551,8.27595 -11.77113,19.58642 -11.77113,34.20727 l -29.42783,-3.31038 c 2.35423,-22.06921 9.71119,-38.62112 22.36515,-49.65572 13.24252,-11.58634 31.1935,-17.65537 54.14721,-17.65537 21.77659,0 39.43329,6.3449 52.97009,18.75883 13.24252,11.8622 20.01092,27.31065 20.01092,46.34534 0,8.82768 -2.05995,18.2071 -5.88556,27.58651 -4.1199,8.82768 -10.59402,18.48296 -20.01093,28.68997 -8.82835,9.65528 -23.24798,23.172671 -43.55318,40.828038 -17.36242,14.896716 -28.83928,24.827861 -34.13629,29.793433 -4.70845,5.241437 -8.82834,10.482874 -11.77113,15.448446 z M 482.26442,0.07128821 V -234.96579 h 31.78205 v 116.96681 l 116.5342,-116.96681 h 41.19896 L 574.07924,-138.96473 676.48809,0.07128821 H 635.28913 L 551.71409,-119.10244 514.04647,-81.584785 V 0.07128821 Z m 0,0"
       style="fill:#000080;fill-opacity:1;fill-rule:nonzero;stroke:none"
       aria-label="2.2K"
       transform="matrix(0.013274,0,0,0.01416,5899.3557,367.1943)" />
    <path
       id="path10023"
       d="M 122.36207,0.13084134 H 92.934241 V -183.04359 c -7.062679,6.62076 -16.185306,13.24152 -27.073603,19.86228 -11.182575,6.62077 -21.188037,11.58634 -30.604942,14.34499 v -27.58651 c 16.479584,-7.17249 30.604942,-16.55191 42.376074,-27.58651 11.771131,-11.03461 20.305202,-21.24162 25.89649,-30.89689 h 18.83381 z M 199.1687,-178.62975 c 0,-16.00018 4.1199,-30.0693 12.94825,-41.9315 8.53407,-11.58633 20.59948,-17.65537 36.49051,-17.65537 14.71391,0 27.0736,5.24144 36.4905,15.44845 9.41691,10.48287 14.12536,25.93132 14.12536,46.34534 0,19.86229 -5.29701,35.31073 -15.30247,46.34534 -9.41691,10.48287 -21.18804,15.44844 -35.31339,15.44844 -14.12536,0 -25.89649,-4.96557 -35.3134,-15.44844 -9.4169,-11.03461 -14.12536,-27.03478 -14.12536,-48.55226 z m 50.61587,-39.72458 c -7.06268,0 -13.5368,3.31038 -18.83381,9.93115 -4.70845,6.06903 -7.06268,17.10363 -7.06268,33.10381 0,15.44845 2.35423,26.20719 7.06268,32.00035 5.29701,6.06904 11.77113,8.82769 18.83381,8.82769 7.06268,0 12.94824,-2.75865 17.6567,-8.82769 4.70845,-6.62076 7.06267,-17.93123 7.06267,-34.20727 0,-15.44845 -2.35422,-25.93132 -7.06267,-32.00035 -4.70846,-5.79317 -10.59402,-8.82769 -17.6567,-8.82769 z m 0,227.312855 128.30533,-247.175145 h 22.36515 L 273.32683,8.958525 Z M 351.0163,-55.042181 c 0,-16.827772 3.82562,-31.172758 11.77113,-43.034958 8.53407,-11.586331 21.18804,-17.655371 37.66762,-17.655371 14.71392,0 27.0736,5.51731 36.49051,16.551911 9.41691,10.482874 14.12536,25.93132 14.12536,46.345339 0,19.862288 -5.29701,35.310734 -15.30247,46.3453386 -9.41691,10.2070092 -21.18804,15.4484464 -35.3134,15.4484464 -14.12536,0 -25.89649,-5.2414372 -35.31339,-15.4484464 C 355.72475,-17.524526 351.0163,-33.524702 351.0163,-55.042181 Z m 49.43875,-40.828037 c -7.06268,0 -12.94824,3.310381 -17.6567,9.931144 -4.70845,6.069033 -7.06267,17.379502 -7.06267,34.207274 0,14.896716 2.35422,25.37959 7.06267,32.000353 4.70846,6.069033 10.59402,8.827684 17.6567,8.827684 7.65124,0 14.12536,-2.758651 18.83381,-8.827684 4.70846,-6.620763 7.06268,-17.931232 7.06268,-34.207274 0,-15.448446 -2.35422,-25.93132 -7.06268,-32.000353 -4.70845,-6.620763 -11.18257,-9.931144 -18.83381,-9.931144 z m 0,0"
       style="fill:#800000;fill-opacity:1;fill-rule:nonzero;stroke:none"
       aria-label="1%"
       transform="matrix(0.013274,0,0,0.01416,5899.3557,372.31455)" />
    <path
       id="path10024"
       d="M 25.838791,-0.08546963 V -235.12255 H 129.42475 c 21.18804,0 36.78478,2.20693 47.08452,6.62077 10.8883,4.41384 19.42237,12.13806 25.89649,23.17267 7.06268,10.48287 10.59402,21.79334 10.59402,34.20727 0,17.10364 -5.59129,31.44862 -16.47958,43.03496 -10.29974,11.0346 -26.77933,18.2071 -49.43875,20.96575 7.65123,4.41384 14.12535,8.551815 18.83381,12.138061 8.53407,8.275954 17.06814,18.482963 25.89649,30.896893 l 40.02184,64.00070637 H 192.98886 L 162.38392,-48.63773 c -9.41691,-13.793255 -17.36242,-24.551995 -23.54227,-32.000353 -5.59128,-8.000088 -10.59401,-13.51739 -15.30247,-16.551906 -4.70845,-2.758652 -9.4169,-4.689711 -14.12536,-5.517301 -3.23706,-0.55173 -8.82834,-1.10346 -16.479579,-1.10346 H 56.443733 V -0.08546963 Z M 56.443733,-131.39726 h 67.095447 c 14.12536,0 25.01366,-1.37933 32.95917,-4.41385 7.65124,-2.75865 13.5368,-7.17249 17.6567,-13.24152 4.70845,-6.62076 7.06268,-13.79326 7.06268,-22.06921 0,-11.0346 -4.41418,-19.86229 -12.94825,-26.48305 -7.94551,-7.17249 -20.59948,-11.03461 -37.66762,-11.03461 H 56.443733 Z m 200.109237,15.44844 c 0,-27.86237 2.6485,-50.20745 8.23979,-67.31108 5.29701,-16.82778 13.5368,-29.79344 24.71938,-38.62112 11.77113,-8.82768 25.89649,-13.24153 42.37607,-13.24153 12.35969,0 23.54226,2.75866 32.95917,7.72423 10.00546,4.41384 17.95097,11.58633 23.54226,20.96575 6.17985,9.65527 10.8883,21.51747 14.12536,35.31073 3.82562,14.06912 5.88557,32.55208 5.88557,55.17302 0,28.138244 -2.94279,50.483319 -8.2398,67.31109 -5.59128,17.103637 -14.12535,30.345163 -25.89649,39.7245768 -11.18257,8.82768357 -25.30793,13.2415254 -42.37607,13.2415254 -22.07087,0 -39.72757,-8.0000883 -52.97009,-24.2761302 -15.00819,-19.862288 -22.36515,-51.862641 -22.36515,-96.001062 z m 29.42783,0 c 0,39.172849 4.11989,64.828304 12.94824,77.242235 9.41691,12.689795 20.3052,18.758827 32.95917,18.758827 13.24252,0 24.13082,-6.069032 32.95917,-18.758827 9.4169,-13.241526 14.12536,-38.896981 14.12536,-77.242235 0,-38.06938 -4.70846,-63.44897 -14.12536,-76.13877 -8.82835,-13.24152 -19.71665,-19.86229 -32.95917,-19.86229 -13.5368,0 -24.13082,5.51731 -31.78205,16.55191 -9.41691,14.89672 -14.12536,41.37977 -14.12536,79.44915 z m 301.63524,88.276839 V -0.08546963 H 432.23711 c 0,-6.62076267 1.17711,-13.24152537 3.53134,-19.86228837 3.82561,-10.207009 10.00546,-20.414018 18.83381,-30.896892 8.53407,-10.20701 21.18803,-22.345075 37.66762,-36.414195 25.89649,-20.414015 42.96463,-36.690065 51.79298,-48.552265 9.4169,-12.41393 14.12535,-24.27613 14.12535,-35.31073 0,-11.58633 -4.41417,-21.24161 -12.94824,-28.68997 -7.94551,-8.00009 -18.53953,-12.13807 -31.78206,-12.13807 -14.12535,0 -25.60221,4.41385 -34.13628,13.24153 -7.94551,8.27595 -11.77113,19.58642 -11.77113,34.20727 l -29.42783,-3.31038 c 2.35423,-22.06921 9.71119,-38.62111 22.36515,-49.65572 13.24253,-11.58633 31.1935,-17.65537 54.14721,-17.65537 21.77659,0 39.43329,6.3449 52.97009,18.75883 13.24252,11.8622 20.01092,27.31065 20.01092,46.34534 0,8.82768 -2.05994,18.2071 -5.88556,27.58651 -4.1199,8.82769 -10.59402,18.48296 -20.01093,28.68997 -8.82834,9.65528 -23.24798,23.172673 -43.55318,40.828041 -17.36242,14.896716 -28.83927,24.82786 -34.13628,29.793432 -4.70846,5.241437 -8.82835,10.482874 -11.77114,15.448446 z m 29.42783,-88.276839 c 0,-27.86237 2.64851,-50.20745 8.23979,-67.31108 5.29701,-16.82778 13.53681,-29.79344 24.71938,-38.62112 11.77113,-8.82768 25.89649,-13.24153 42.37607,-13.24153 12.35969,0 23.54227,2.75866 32.95917,7.72423 10.00546,4.41384 17.95098,11.58633 23.54227,20.96575 6.17984,9.65527 10.88829,21.51747 14.12535,35.31073 3.82562,14.06912 5.88557,32.55208 5.88557,55.17302 0,28.138244 -2.94278,50.483319 -8.23979,67.31109 -5.59129,17.103637 -14.12536,30.345163 -25.89649,39.7245768 -11.18258,8.82768357 -25.30794,13.2415254 -42.37608,13.2415254 -22.07087,0 -39.72756,-8.0000883 -52.97009,-24.2761302 -15.00819,-19.862288 -22.36515,-51.862641 -22.36515,-96.001062 z m 29.42783,0 c 0,39.172849 4.1199,64.828304 12.94825,77.242235 9.4169,12.689795 20.3052,18.758827 32.95916,18.758827 13.24253,0 24.13082,-6.069032 32.95917,-18.758827 9.41691,-13.241526 14.12536,-38.896981 14.12536,-77.242235 0,-38.06938 -4.70845,-63.44897 -14.12536,-76.13877 -8.82835,-13.24152 -19.71664,-19.86229 -32.95917,-19.86229 -13.5368,0 -24.13082,5.51731 -31.78205,16.55191 -9.41691,14.89672 -14.12536,41.37977 -14.12536,79.44915 z M 905.43659,-0.08546963 H 876.00877 V -183.2599 c -7.06268,6.62076 -16.18531,13.24152 -27.07361,19.86228 -11.18257,6.62077 -21.18803,11.58634 -30.60494,14.34499 v -27.58651 c 16.47959,-7.17249 30.60494,-16.55191 42.37608,-27.58651 11.77113,-11.03461 20.3052,-21.24162 25.89648,-30.8969 h 18.83381 z m 0,0"
       style="fill:#800000;fill-opacity:1;fill-rule:nonzero;stroke:none"
       aria-label="R0201"
       transform="matrix(0.013274,0,0,0.01416,5899.3557,377.4348)" />
    <path
       id="path10025"
       d="m 181.44,357.60001 v -5.12"
       style="fill:none;stroke:#ff0000;stroke-width:0.48;stroke-linecap:round;stroke-linejoin:round;stroke-miterlimit:10;stroke-dasharray:none;stroke-opacity:1"
       transform="translate(5712.8003)" />
    <path
       id="path10026"
       d="m 181.44,352.48001 v 0"
       style="fill:none;stroke:#ff0000;stroke-width:0.48;stroke-linecap:round;stroke-linejoin:round;stroke-miterlimit:10;stroke-dasharray:none;stroke-opacity:1"
       transform="translate(5712.8003)" />
    <path
       id="path10027"
       d="m 181.44,373.12 v 5.27999"
       style="fill:none;stroke:#ff0000;stroke-width:0.48;stroke-linecap:round;stroke-linejoin:round;stroke-miterlimit:10;stroke-dasharray:none;stroke-opacity:1"
       transform="translate(5712.8003)" />
    <path
       id="path10028"
       d="m 181.44,378.39999 v 0"
       style="fill:none;stroke:#ff0000;stroke-width:0.48;stroke-linecap:round;stroke-linejoin:round;stroke-miterlimit:10;stroke-dasharray:none;stroke-opacity:1"
       transform="translate(5712.8003)" />
    <path
       id="path10070"
       d="m 207.36,357.60001 1.44,1.6"
       style="fill:none;stroke:#0000ff;stroke-width:0.48;stroke-linecap:round;stroke-linejoin:round;stroke-miterlimit:10;stroke-dasharray:none;stroke-opacity:1"
       transform="translate(5712.8003)" />
    <path
       id="path10071"
       d="m 208.8,359.20001 v 0"
       style="fill:none;stroke:#0000ff;stroke-width:0.48;stroke-linecap:round;stroke-linejoin:round;stroke-miterlimit:10;stroke-dasharray:none;stroke-opacity:1"
       transform="translate(5712.8003)" />
    <path
       id="path10072"
       d="m 208.8,359.20001 -3.04001,3.03998"
       style="fill:none;stroke:#0000ff;stroke-width:0.48;stroke-linecap:round;stroke-linejoin:round;stroke-miterlimit:10;stroke-dasharray:none;stroke-opacity:1"
       transform="translate(5712.8003)" />
    <path
       id="path10073"
       d="m 205.75999,362.23999 v 0"
       style="fill:none;stroke:#0000ff;stroke-width:0.48;stroke-linecap:round;stroke-linejoin:round;stroke-miterlimit:10;stroke-dasharray:none;stroke-opacity:1"
       transform="translate(5712.8003)" />
    <path
       id="path10074"
       d="M 205.75999,362.23999 208.8,365.44"
       style="fill:none;stroke:#0000ff;stroke-width:0.48;stroke-linecap:round;stroke-linejoin:round;stroke-miterlimit:10;stroke-dasharray:none;stroke-opacity:1"
       transform="translate(5712.8003)" />
    <path
       id="path10075"
       d="m 208.8,365.44 v 0"
       style="fill:none;stroke:#0000ff;stroke-width:0.48;stroke-linecap:round;stroke-linejoin:round;stroke-miterlimit:10;stroke-dasharray:none;stroke-opacity:1"
       transform="translate(5712.8003)" />
    <path
       id="path10076"
       d="m 208.8,365.44 -3.04001,3.04001"
       style="fill:none;stroke:#0000ff;stroke-width:0.48;stroke-linecap:round;stroke-linejoin:round;stroke-miterlimit:10;stroke-dasharray:none;stroke-opacity:1"
       transform="translate(5712.8003)" />
    <path
       id="path10077"
       d="m 205.75999,368.48001 v 0"
       style="fill:none;stroke:#0000ff;stroke-width:0.48;stroke-linecap:round;stroke-linejoin:round;stroke-miterlimit:10;stroke-dasharray:none;stroke-opacity:1"
       transform="translate(5712.8003)" />
    <path
       id="path10078"
       d="M 205.75999,368.48001 208.8,371.67999"
       style="fill:none;stroke:#0000ff;stroke-width:0.48;stroke-linecap:round;stroke-linejoin:round;stroke-miterlimit:10;stroke-dasharray:none;stroke-opacity:1"
       transform="translate(5712.8003)" />
    <path
       id="path10079"
       d="m 208.8,371.67999 v 0"
       style="fill:none;stroke:#0000ff;stroke-width:0.48;stroke-linecap:round;stroke-linejoin:round;stroke-miterlimit:10;stroke-dasharray:none;stroke-opacity:1"
       transform="translate(5712.8003)" />
    <path
       id="path10080"
       d="M 208.8,371.67999 207.36,373.12"
       style="fill:none;stroke:#0000ff;stroke-width:0.48;stroke-linecap:round;stroke-linejoin:round;stroke-miterlimit:10;stroke-dasharray:none;stroke-opacity:1"
       transform="translate(5712.8003)" />
    <path
       id="path10081"
       d="m 207.36,373.12 v 0"
       style="fill:none;stroke:#0000ff;stroke-width:0.48;stroke-linecap:round;stroke-linejoin:round;stroke-miterlimit:10;stroke-dasharray:none;stroke-opacity:1"
       transform="translate(5712.8003)" />
    <path
       id="path10082"
       d="M 25.969317,-0.09756356 V -235.13464 H 129.55527 c 21.18804,0 36.78479,2.20692 47.08453,6.62076 10.8883,4.41384 19.42237,12.13807 25.89649,23.17267 7.06268,10.48288 10.59402,21.79335 10.59402,34.20728 0,17.10363 -5.59129,31.44862 -16.47959,43.03495 -10.29974,11.03461 -26.77932,18.2071 -49.43875,20.96575 7.65124,4.41384 14.12536,8.551821 18.83381,12.138068 8.53407,8.275953 17.06814,18.482962 25.89649,30.896892 l 40.02185,64.00070644 H 193.11938 L 162.51444,-48.649823 c -9.4169,-13.793256 -17.36242,-24.551996 -23.54226,-32.000354 -5.59129,-8.000088 -10.59402,-13.51739 -15.30247,-16.551906 -4.70845,-2.758651 -9.41691,-4.689707 -14.12536,-5.517307 -3.23706,-0.55173 -8.82835,-1.10346 -16.479584,-1.10346 H 56.574259 V -0.09756356 Z M 56.574259,-131.40936 h 67.095451 c 14.12536,0 25.01365,-1.37932 32.95917,-4.41384 7.65123,-2.75865 13.5368,-7.17249 17.65669,-13.24152 4.70846,-6.62077 7.06268,-13.79326 7.06268,-22.06921 0,-11.03461 -4.41417,-19.86229 -12.94824,-26.48305 -7.94552,-7.1725 -20.59948,-11.03461 -37.66762,-11.03461 H 56.574259 Z M 407.35398,-27.684075 V -0.09756356 H 251.97504 c 0,-6.62076274 1.17712,-13.24152544 3.53134,-19.86228844 3.82562,-10.207009 10.00546,-20.414018 18.83381,-30.896892 8.53407,-10.20701 21.18804,-22.345075 37.66762,-36.414195 25.89649,-20.414021 42.96463,-36.690061 51.79298,-48.552261 9.41691,-12.41393 14.12536,-24.27613 14.12536,-35.31073 0,-11.58634 -4.41417,-21.24162 -12.94825,-28.68998 -7.94551,-8.00008 -18.53953,-12.13806 -31.78205,-12.13806 -14.12536,0 -25.60221,4.41384 -34.13628,13.24153 -7.94552,8.27595 -11.77113,19.58642 -11.77113,34.20727 l -29.42783,-3.31038 c 2.35422,-22.06921 9.71118,-38.62112 22.36515,-49.65572 13.24252,-11.58634 31.1935,-17.65537 54.1472,-17.65537 21.7766,0 39.43329,6.3449 52.97009,18.75883 13.24253,11.8622 20.01093,27.31064 20.01093,46.34534 0,8.82768 -2.05995,18.20709 -5.88557,27.58651 -4.11989,8.82768 -10.59402,18.48296 -20.01092,28.68997 -8.82835,9.65528 -23.24799,23.172669 -43.55319,40.828037 -17.36242,14.896716 -28.83927,24.82786 -34.13628,29.793432 -4.70845,5.241437 -8.82835,10.482874 -11.77113,15.448446 z M 528.59663,-0.09756356 V -56.374047 H 427.3649 v -26.48305 L 533.30509,-235.13464 h 23.54226 v 152.277543 h 31.78205 v 26.48305 h -31.78205 v 56.27648344 z m 0,-82.75953344 V -188.7893 L 455.61562,-82.857097 Z M 708.98922,-0.09756356 V -56.374047 H 607.75749 v -26.48305 L 713.69768,-235.13464 h 23.54226 v 152.277543 h 31.78205 v 26.48305 h -31.78205 v 56.27648344 z m 0,-82.75953344 V -188.7893 l -72.98101,105.932203 z m 0,0"
       style="fill:#000080;fill-opacity:1;fill-rule:nonzero;stroke:none"
       aria-label="R244"
       transform="matrix(0.013274,0,0,0.01416,5925.2759,361.91544)" />
    <path
       id="path10083"
       d="M 164.86867,-27.515223 V 0.07128821 H 9.4897325 c 0,-6.62076271 1.1771135,-13.24152521 3.5313395,-19.86228821 3.825618,-10.207009 10.005462,-20.414018 18.83381,-30.896893 8.534071,-10.207009 21.188037,-22.345074 37.667621,-36.414194 25.89649,-20.414023 42.964627,-36.690063 51.792977,-48.552263 9.41691,-12.41393 14.12536,-24.27613 14.12536,-35.31073 0,-11.58634 -4.41417,-21.24162 -12.94824,-28.68997 -7.94552,-8.00009 -18.53954,-12.13807 -31.78206,-12.13807 -14.125358,0 -25.602211,4.41384 -34.136281,13.24153 -7.945514,8.27595 -11.771132,19.58642 -11.771132,34.20727 l -29.427829,-3.31038 c 2.354227,-22.06921 9.711184,-38.62112 22.36515,-49.65572 13.242523,-11.58634 31.193499,-17.65537 54.147205,-17.65537 21.776597,0 39.433287,6.3449 52.970097,18.75883 13.24252,11.8622 20.01092,27.31065 20.01092,46.34534 0,8.82768 -2.05995,18.2071 -5.88557,27.58651 -4.11989,8.82768 -10.59402,18.48296 -20.01092,28.68997 -8.82835,9.65528 -23.24799,23.172671 -43.553187,40.828038 -17.362419,14.896716 -28.839273,24.827861 -34.136282,29.793433 -4.708452,5.241437 -8.828348,10.482874 -11.771131,15.448446 z m 44.7303,27.58651121 V -33.032525 h 32.95917 V 0.07128821 Z M 443.25593,-27.515223 V 0.07128821 H 287.87699 c 0,-6.62076271 1.17712,-13.24152521 3.53134,-19.86228821 3.82562,-10.207009 10.00546,-20.414018 18.83381,-30.896893 8.53407,-10.207009 21.18804,-22.345074 37.66762,-36.414194 25.89649,-20.414023 42.96463,-36.690063 51.79298,-48.552263 9.41691,-12.41393 14.12536,-24.27613 14.12536,-35.31073 0,-11.58634 -4.41417,-21.24162 -12.94824,-28.68997 -7.94552,-8.00009 -18.53954,-12.13807 -31.78206,-12.13807 -14.12536,0 -25.60221,4.41384 -34.13628,13.24153 -7.94551,8.27595 -11.77113,19.58642 -11.77113,34.20727 l -29.42783,-3.31038 c 2.35423,-22.06921 9.71118,-38.62112 22.36515,-49.65572 13.24252,-11.58634 31.1935,-17.65537 54.1472,-17.65537 21.7766,0 39.43329,6.3449 52.9701,18.75883 13.24252,11.8622 20.01092,27.31065 20.01092,46.34534 0,8.82768 -2.05995,18.2071 -5.88557,27.58651 -4.11989,8.82768 -10.59401,18.48296 -20.01092,28.68997 -8.82835,9.65528 -23.24798,23.172671 -43.55319,40.828038 -17.36242,14.896716 -28.83927,24.827861 -34.13628,29.793433 -4.70845,5.241437 -8.82835,10.482874 -11.77113,15.448446 z M 482.39494,0.07128821 V -234.96579 H 514.177 v 116.96681 l 116.5342,-116.96681 h 41.19896 L 574.20977,-138.96473 676.61861,0.07128821 H 635.41965 L 551.84462,-119.10244 514.177,-81.584785 V 0.07128821 Z m 0,0"
       style="fill:#000080;fill-opacity:1;fill-rule:nonzero;stroke:none"
       aria-label="2.2K"
       transform="matrix(0.013274,0,0,0.01416,5925.2759,367.1943)" />
    <path
       id="path10084"
       d="M 122.4926,0.13084134 H 93.064766 V -183.04359 c -7.062678,6.62076 -16.185305,13.24152 -27.073602,19.86228 -11.182575,6.62077 -21.188037,11.58634 -30.604942,14.34499 v -27.58651 c 16.479584,-7.17249 30.604942,-16.55191 42.376073,-27.58651 11.771132,-11.03461 20.305202,-21.24162 25.896485,-30.89689 H 122.4926 Z M 199.00495,-178.62975 c 0,-16.00018 4.1199,-30.0693 12.94824,-41.9315 8.53408,-11.58633 20.59949,-17.65537 36.49051,-17.65537 14.71392,0 27.07361,5.24144 36.49051,15.44845 9.41691,10.48287 14.12536,25.93132 14.12536,46.34534 0,19.86229 -5.29701,35.31073 -15.30247,46.34534 -9.41691,10.48287 -21.18804,15.44844 -35.3134,15.44844 -14.12536,0 -25.89649,-4.96557 -35.31339,-15.44844 -9.41691,-11.03461 -14.12536,-27.03478 -14.12536,-48.55226 z m 50.61587,-39.72458 c -7.06268,0 -13.53681,3.31038 -18.83381,9.93115 -4.70846,6.06903 -7.06268,17.10363 -7.06268,33.10381 0,15.44845 2.35422,26.20719 7.06268,32.00035 5.297,6.06904 11.77113,8.82769 18.83381,8.82769 7.06267,0 12.94824,-2.75865 17.65669,-8.82769 4.70846,-6.62076 7.06268,-17.93123 7.06268,-34.20727 0,-15.44845 -2.35422,-25.93132 -7.06268,-32.00035 -4.70845,-5.79317 -10.59402,-8.82769 -17.65669,-8.82769 z m 0,227.312855 128.30533,-247.175145 H 400.2913 L 273.16308,8.958525 Z m 101.23173,-64.000706 c 0,-16.827772 3.82561,-31.172758 11.77113,-43.034958 8.53407,-11.586331 21.18804,-17.655371 37.66762,-17.655371 14.71391,0 27.0736,5.51731 36.49051,16.551911 9.4169,10.482874 14.12536,25.93132 14.12536,46.345339 0,19.862288 -5.29701,35.310734 -15.30248,46.3453386 -9.4169,10.2070092 -21.18803,15.4484464 -35.31339,15.4484464 -14.12536,0 -25.89649,-5.2414372 -35.3134,-15.4484464 C 355.561,-17.524526 350.85255,-33.524702 350.85255,-55.042181 Z m 49.43875,-40.828037 c -7.06268,0 -12.94825,3.310381 -17.6567,9.931144 -4.70845,6.069033 -7.06268,17.379502 -7.06268,34.207274 0,14.896716 2.35423,25.37959 7.06268,32.000353 4.70845,6.069033 10.59402,8.827684 17.6567,8.827684 7.65124,0 14.12536,-2.758651 18.83381,-8.827684 4.70845,-6.620763 7.06268,-17.931232 7.06268,-34.207274 0,-15.448446 -2.35423,-25.93132 -7.06268,-32.000353 -4.70845,-6.620763 -11.18257,-9.931144 -18.83381,-9.931144 z m 0,0"
       style="fill:#800000;fill-opacity:1;fill-rule:nonzero;stroke:none"
       aria-label="1%"
       transform="matrix(0.013274,0,0,0.01416,5925.2759,372.31455)" />
    <path
       id="path10085"
       d="M 25.969317,-0.08546963 V -235.12255 H 129.55527 c 21.18804,0 36.78479,2.20693 47.08453,6.62077 10.8883,4.41384 19.42237,12.13806 25.89649,23.17267 7.06268,10.48287 10.59402,21.79334 10.59402,34.20727 0,17.10364 -5.59129,31.44862 -16.47959,43.03496 -10.29974,11.0346 -26.77932,18.2071 -49.43875,20.96575 7.65124,4.41384 14.12536,8.551815 18.83381,12.138061 8.53407,8.275954 17.06814,18.482963 25.89649,30.896893 l 40.02185,64.00070637 H 193.11938 L 162.51444,-48.63773 c -9.4169,-13.793255 -17.36242,-24.551995 -23.54226,-32.000353 -5.59129,-8.000088 -10.59402,-13.51739 -15.30247,-16.551906 -4.70845,-2.758652 -9.41691,-4.689711 -14.12536,-5.517301 -3.23706,-0.55173 -8.82835,-1.10346 -16.479584,-1.10346 H 56.574259 V -0.08546963 Z M 56.574259,-131.39726 h 67.095451 c 14.12536,0 25.01365,-1.37933 32.95917,-4.41385 7.65123,-2.75865 13.5368,-7.17249 17.65669,-13.24152 4.70846,-6.62076 7.06268,-13.79326 7.06268,-22.06921 0,-11.0346 -4.41417,-19.86229 -12.94824,-26.48305 -7.94552,-7.17249 -20.59948,-11.03461 -37.66762,-11.03461 H 56.574259 Z m 200.109231,15.44844 c 0,-27.86237 2.64851,-50.20745 8.2398,-67.31108 5.29701,-16.82778 13.5368,-29.79344 24.71937,-38.62112 11.77113,-8.82768 25.89649,-13.24153 42.37608,-13.24153 12.35968,0 23.54226,2.75866 32.95916,7.72423 10.00547,4.41384 17.95098,11.58633 23.54227,20.96575 6.17984,9.65527 10.88829,21.51747 14.12536,35.31073 3.82561,14.06912 5.88556,32.55208 5.88556,55.17302 0,28.138244 -2.94278,50.483319 -8.23979,67.31109 -5.59129,17.103637 -14.12536,30.345163 -25.89649,39.7245768 -11.18257,8.82768357 -25.30793,13.2415254 -42.37607,13.2415254 -22.07088,0 -39.72757,-8.0000883 -52.9701,-24.2761302 -15.00819,-19.862288 -22.36515,-51.862641 -22.36515,-96.001062 z m 29.42783,0 c 0,39.172849 4.1199,64.828304 12.94825,77.242235 9.4169,12.689795 20.3052,18.758827 32.95917,18.758827 13.24252,0 24.13082,-6.069032 32.95916,-18.758827 9.41691,-13.241526 14.12536,-38.896981 14.12536,-77.242235 0,-38.06938 -4.70845,-63.44897 -14.12536,-76.13877 -8.82834,-13.24152 -19.71664,-19.86229 -32.95916,-19.86229 -13.5368,0 -24.13082,5.51731 -31.78206,16.55191 -9.4169,14.89672 -14.12536,41.37977 -14.12536,79.44915 z m 301.34097,88.276839 V -0.08546963 H 432.07335 c 0,-6.62076267 1.17712,-13.24152537 3.53134,-19.86228837 3.82562,-10.207009 10.00547,-20.414018 18.83381,-30.896892 8.53407,-10.20701 21.18804,-22.345075 37.66763,-36.414195 25.89648,-20.414015 42.96463,-36.690065 51.79297,-48.552265 9.41691,-12.41393 14.12536,-24.27613 14.12536,-35.31073 0,-11.58633 -4.41417,-21.24161 -12.94824,-28.68997 -7.94552,-8.00009 -18.53953,-12.13807 -31.78206,-12.13807 -14.12536,0 -25.60221,4.41385 -34.13628,13.24153 -7.94551,8.27595 -11.77113,19.58642 -11.77113,34.20727 l -29.42783,-3.31038 c 2.35423,-22.06921 9.71118,-38.62111 22.36515,-49.65572 13.24252,-11.58633 31.1935,-17.65537 54.14721,-17.65537 21.77659,0 39.43329,6.3449 52.97009,18.75883 13.24252,11.8622 20.01092,27.31065 20.01092,46.34534 0,8.82768 -2.05995,18.2071 -5.88556,27.58651 -4.1199,8.82769 -10.59402,18.48296 -20.01093,28.68997 -8.82835,9.65528 -23.24798,23.172673 -43.55319,40.828041 -17.36241,14.896716 -28.83927,24.82786 -34.13628,29.793432 -4.70845,5.241437 -8.82835,10.482874 -11.77113,15.448446 z m 29.72211,-88.276839 c 0,-27.86237 2.6485,-50.20745 8.23979,-67.31108 5.29701,-16.82778 13.5368,-29.79344 24.71938,-38.62112 11.77113,-8.82768 25.89649,-13.24153 42.37607,-13.24153 12.35969,0 23.54226,2.75866 32.95917,7.72423 10.00546,4.41384 17.95097,11.58633 23.54226,20.96575 6.17985,9.65527 10.8883,21.51747 14.12536,35.31073 3.82562,14.06912 5.88556,32.55208 5.88556,55.17302 0,28.138244 -2.94278,50.483319 -8.23979,67.31109 -5.59128,17.103637 -14.12536,30.345163 -25.89649,39.7245768 -11.18257,8.82768357 -25.30793,13.2415254 -42.37607,13.2415254 -22.07087,0 -39.72757,-8.0000883 -52.97009,-24.2761302 -15.00819,-19.862288 -22.36515,-51.862641 -22.36515,-96.001062 z m 29.42783,0 c 0,39.172849 4.11989,64.828304 12.94824,77.242235 9.41691,12.689795 20.3052,18.758827 32.95917,18.758827 13.24252,0 24.13082,-6.069032 32.95917,-18.758827 9.4169,-13.241526 14.12536,-38.896981 14.12536,-77.242235 0,-38.06938 -4.70846,-63.44897 -14.12536,-76.13877 -8.82835,-13.24152 -19.71665,-19.86229 -32.95917,-19.86229 -13.5368,0 -24.13082,5.51731 -31.78206,16.55191 -9.4169,14.89672 -14.12535,41.37977 -14.12535,79.44915 z M 905.56712,-0.08546963 H 876.13929 V -183.2599 c -7.06268,6.62076 -16.1853,13.24152 -27.0736,19.86228 -11.18258,6.62077 -21.18804,11.58634 -30.60494,14.34499 v -27.58651 c 16.47958,-7.17249 30.60494,-16.55191 42.37607,-27.58651 11.77113,-11.03461 20.3052,-21.24162 25.89649,-30.8969 h 18.83381 z m 0,0"
       style="fill:#800000;fill-opacity:1;fill-rule:nonzero;stroke:none"
       aria-label="R0201"
       transform="matrix(0.013274,0,0,0.01416,5925.2759,377.4348)" />
    <path
       id="path10086"
       d="m 207.36,357.60001 v -5.12"
       style="fill:none;stroke:#ff0000;stroke-width:0.48;stroke-linecap:round;stroke-linejoin:round;stroke-miterlimit:10;stroke-dasharray:none;stroke-opacity:1"
       transform="translate(5712.8003)" />
    <path
       id="path10087"
       d="m 207.36,352.48001 v 0"
       style="fill:none;stroke:#ff0000;stroke-width:0.48;stroke-linecap:round;stroke-linejoin:round;stroke-miterlimit:10;stroke-dasharray:none;stroke-opacity:1"
       transform="translate(5712.8003)" />
    <path
       id="path10088"
       d="m 207.36,373.12 v 5.27999"
       style="fill:none;stroke:#ff0000;stroke-width:0.48;stroke-linecap:round;stroke-linejoin:round;stroke-miterlimit:10;stroke-dasharray:none;stroke-opacity:1"
       transform="translate(5712.8003)" />
    <path
       id="path10089"
       d="m 207.36,378.39999 v 0"
       style="fill:none;stroke:#ff0000;stroke-width:0.48;stroke-linecap:round;stroke-linejoin:round;stroke-miterlimit:10;stroke-dasharray:none;stroke-opacity:1"
       transform="translate(5712.8003)" />
    <path
       id="path10861"
       d="m 181.44,347.20001 v -5.12002"
       style="fill:none;stroke:#800040;stroke-width:0.48;stroke-linecap:round;stroke-linejoin:round;stroke-miterlimit:10;stroke-dasharray:none;stroke-opacity:1"
       transform="translate(5712.8003)" />
    <path
       id="path10862"
       d="m 181.44,342.07999 v 0"
       style="fill:none;stroke:#800040;stroke-width:0.48;stroke-linecap:round;stroke-linejoin:round;stroke-miterlimit:10;stroke-dasharray:none;stroke-opacity:1"
       transform="translate(5712.8003)" />
    <path
       id="path10863"
       d="M 207.36,347.20001 H 181.44"
       style="fill:none;stroke:#800040;stroke-width:0.48;stroke-linecap:round;stroke-linejoin:round;stroke-miterlimit:10;stroke-dasharray:none;stroke-opacity:1"
       transform="translate(5712.8003)" />
    <path
       id="path10864"
       d="m 181.44,347.20001 v 0"
       style="fill:none;stroke:#800040;stroke-width:0.48;stroke-linecap:round;stroke-linejoin:round;stroke-miterlimit:10;stroke-dasharray:none;stroke-opacity:1"
       transform="translate(5712.8003)" />
    <path
       id="path10865"
       d="m 0,0 c 0,-0.53 -0.42,-0.96 -0.96,-0.96 -0.54,0 -0.96,0.43 -0.96,0.96 0,0.53 0.42,0.96 0.96,0.96 C -0.42,0.96 0,0.53 0,0 Z"
       style="fill:#ff00ff;fill-opacity:1;fill-rule:evenodd;stroke:#ff00ff;stroke-width:0.48;stroke-linecap:round;stroke-linejoin:round;stroke-miterlimit:10;stroke-dasharray:none;stroke-opacity:1"
       transform="translate(5895.0403,347.20002)" />
    <path
       id="path10866"
       d="m 181.44,352.48001 v -5.28"
       style="fill:none;stroke:#800040;stroke-width:0.48;stroke-linecap:round;stroke-linejoin:round;stroke-miterlimit:10;stroke-dasharray:none;stroke-opacity:1"
       transform="translate(5712.8003)" />
    <path
       id="path10867"
       d="m 181.44,347.20001 v 0"
       style="fill:none;stroke:#800040;stroke-width:0.48;stroke-linecap:round;stroke-linejoin:round;stroke-miterlimit:10;stroke-dasharray:none;stroke-opacity:1"
       transform="translate(5712.8003)" />
    <path
       id="path10868"
       d="m 207.36,352.48001 v -5.28"
       style="fill:none;stroke:#800040;stroke-width:0.48;stroke-linecap:round;stroke-linejoin:round;stroke-miterlimit:10;stroke-dasharray:none;stroke-opacity:1"
       transform="translate(5712.8003)" />
    <path
       id="path10869"
       d="m 207.36,347.20001 v 0"
       style="fill:none;stroke:#800040;stroke-width:0.48;stroke-linecap:round;stroke-linejoin:round;stroke-miterlimit:10;stroke-dasharray:none;stroke-opacity:1"
       transform="translate(5712.8003)" />
    <path
       id="path10870"
       d="m 181.44,383.51999 v -5.12"
       style="fill:none;stroke:#800040;stroke-width:0.48;stroke-linecap:round;stroke-linejoin:round;stroke-miterlimit:10;stroke-dasharray:none;stroke-opacity:1"
       transform="translate(5712.8003)" />
    <path
       id="path10871"
       d="m 181.44,378.39999 v 0"
       style="fill:none;stroke:#800040;stroke-width:0.48;stroke-linecap:round;stroke-linejoin:round;stroke-miterlimit:10;stroke-dasharray:none;stroke-opacity:1"
       transform="translate(5712.8003)" />
    <path
       id="path10872"
       d="m 207.36,388.79999 v -10.4"
       style="fill:none;stroke:#800040;stroke-width:0.48;stroke-linecap:round;stroke-linejoin:round;stroke-miterlimit:10;stroke-dasharray:none;stroke-opacity:1"
       transform="translate(5712.8003)" />
    <path
       id="path10873"
       d="m 207.36,378.39999 v 0"
       style="fill:none;stroke:#800040;stroke-width:0.48;stroke-linecap:round;stroke-linejoin:round;stroke-miterlimit:10;stroke-dasharray:none;stroke-opacity:1"
       transform="translate(5712.8003)" />
    <path
       id="path10874"
       d="M 181.44,383.51999 H 171.03999"
       style="fill:none;stroke:#800040;stroke-width:0.48;stroke-linecap:round;stroke-linejoin:round;stroke-miterlimit:10;stroke-dasharray:none;stroke-opacity:1"
       transform="translate(5712.8003)" />
    <path
       id="path10875"
       d="m 171.03999,383.51999 v 0"
       style="fill:none;stroke:#800040;stroke-width:0.48;stroke-linecap:round;stroke-linejoin:round;stroke-miterlimit:10;stroke-dasharray:none;stroke-opacity:1"
       transform="translate(5712.8003)" />
    <path
       id="path10876"
       d="M 207.36,388.79999 H 171.03999"
       style="fill:none;stroke:#800040;stroke-width:0.48;stroke-linecap:round;stroke-linejoin:round;stroke-miterlimit:10;stroke-dasharray:none;stroke-opacity:1"
       transform="translate(5712.8003)" />
    <path
       id="path10877"
       d="m 171.03999,388.79999 v 0"
       style="fill:none;stroke:#800040;stroke-width:0.48;stroke-linecap:round;stroke-linejoin:round;stroke-miterlimit:10;stroke-dasharray:none;stroke-opacity:1"
       transform="translate(5712.8003)" />
    <path
       id="path10878"
       d="M 274.72,383.51999 H 181.44"
       style="fill:none;stroke:#800040;stroke-width:0.48;stroke-linecap:round;stroke-linejoin:round;stroke-miterlimit:10;stroke-dasharray:none;stroke-opacity:1"
       transform="translate(5712.8003)" />
    <path
       id="path10879"
       d="m 181.44,383.51999 v 0"
       style="fill:none;stroke:#800040;stroke-width:0.48;stroke-linecap:round;stroke-linejoin:round;stroke-miterlimit:10;stroke-dasharray:none;stroke-opacity:1"
       transform="translate(5712.8003)" />
    <path
       id="path10880"
       d="m 0,0 c 0,-0.53 -0.42,-0.96 -0.96,-0.96 -0.54,0 -0.96,0.43 -0.96,0.96 0,0.53 0.42,0.96 0.96,0.96 C -0.42,0.96 0,0.53 0,0 Z"
       style="fill:#ff00ff;fill-opacity:1;fill-rule:evenodd;stroke:#ff00ff;stroke-width:0.48;stroke-linecap:round;stroke-linejoin:round;stroke-miterlimit:10;stroke-dasharray:none;stroke-opacity:1"
       transform="translate(5895.0403,383.51999)" />
    <path
       id="path10881"
       d="M 24.657634,0.09799145 V -234.93908 h 89.460596 c 14.71392,0 26.48505,0.82759 35.3134,2.20692 10.88829,2.20692 20.3052,6.34489 28.25071,12.13806 7.65124,5.24144 14.12536,12.6898 18.83381,22.06921 4.70846,9.65528 7.06268,20.41402 7.06268,32.00035 0,19.86229 -6.47412,36.96593 -18.83381,50.75918 -12.65396,14.06912 -35.31339,20.965753 -68.27256,20.965753 H 56.439689 V 0.09799145 Z M 56.439689,-123.48958 h 60.032771 c 20.3052,0 34.43056,-3.58625 42.37607,-11.0346 8.53407,-7.1725 12.94825,-17.65537 12.94825,-30.8969 0,-10.20701 -2.35423,-18.75882 -7.06268,-25.37959 -4.70845,-7.17249 -11.47685,-12.13806 -20.01092,-14.34498 -4.70846,-1.37933 -14.12536,-2.20692 -28.25072,-2.20692 H 56.439689 Z M 381.02864,-27.48852 V 0.09799145 H 225.6497 c 0,-6.62076275 1.17712,-13.24152545 3.53134,-19.86228845 3.82562,-10.207009 10.00547,-20.414018 18.83381,-30.896892 8.53408,-10.20701 21.18804,-22.345074 37.66763,-36.414195 25.89649,-20.414016 42.96463,-36.690056 51.79297,-48.552256 9.41691,-12.41393 14.12536,-24.27613 14.12536,-35.31074 0,-11.58633 -4.41417,-21.24161 -12.94824,-28.68997 -7.94552,-8.00009 -18.53953,-12.13807 -31.78206,-12.13807 -14.12536,0 -25.60221,4.41385 -34.13628,13.24153 -7.94551,8.27595 -11.77113,19.58642 -11.77113,34.20727 l -29.42783,-3.31038 c 2.35423,-22.06921 9.71118,-38.62111 22.36515,-49.65572 13.24252,-11.58633 31.1935,-17.65536 54.14721,-17.65536 21.77659,0 39.43329,6.34489 52.97009,18.75882 13.24252,11.8622 20.01092,27.31065 20.01092,46.34534 0,8.82769 -2.05995,18.2071 -5.88556,27.58651 -4.1199,8.82769 -10.59402,18.48297 -20.01093,28.68997 -8.82835,9.65528 -23.24798,23.172674 -43.55318,40.828042 -17.36242,14.896716 -28.83928,24.82786 -34.13629,29.793432 -4.70845,5.241437 -8.82834,10.482874 -11.77113,15.448446 z m 180.39259,0 V 0.09799145 H 406.0423 c 0,-6.62076275 1.17711,-13.24152545 3.53134,-19.86228845 3.82561,-10.207009 10.00546,-20.414018 18.83381,-30.896892 8.53407,-10.20701 21.18803,-22.345074 37.66762,-36.414195 25.89649,-20.414016 42.96463,-36.690056 51.79298,-48.552256 9.4169,-12.41393 14.12535,-24.27613 14.12535,-35.31074 0,-11.58633 -4.41417,-21.24161 -12.94824,-28.68997 -7.94552,-8.00009 -18.53953,-12.13807 -31.78206,-12.13807 -14.12535,0 -25.60221,4.41385 -34.13628,13.24153 -7.94551,8.27595 -11.77113,19.58642 -11.77113,34.20727 l -29.42783,-3.31038 c 2.35423,-22.06921 9.71118,-38.62111 22.36515,-49.65572 13.24252,-11.58633 31.1935,-17.65536 54.14721,-17.65536 21.77659,0 39.43329,6.34489 52.97009,18.75882 13.24252,11.8622 20.01092,27.31065 20.01092,46.34534 0,8.82769 -2.05995,18.2071 -5.88556,27.58651 -4.1199,8.82769 -10.59402,18.48297 -20.01093,28.68997 -8.82835,9.65528 -23.24798,23.172674 -43.55318,40.828042 -17.36242,14.896716 -28.83928,24.82786 -34.13629,29.793432 -4.70845,5.241437 -8.82834,10.482874 -11.77113,15.448446 z M 579.96076,4.5118333 648.23333,-238.24947 h 22.36515 L 603.50303,4.5118333 Z M 705.61759,0.09799145 V -234.93908 h 30.60495 V 0.09799145 Z M 934.86038,-27.48852 V 0.09799145 H 779.48144 c 0,-6.62076275 1.17712,-13.24152545 3.53134,-19.86228845 3.82562,-10.207009 10.00546,-20.414018 18.83381,-30.896892 8.53407,-10.20701 21.18804,-22.345074 37.66762,-36.414195 25.89649,-20.414016 42.96463,-36.690056 51.79298,-48.552256 9.41691,-12.41393 14.12536,-24.27613 14.12536,-35.31074 0,-11.58633 -4.41417,-21.24161 -12.94824,-28.68997 -7.94552,-8.00009 -18.53954,-12.13807 -31.78206,-12.13807 -14.12536,0 -25.60221,4.41385 -34.13628,13.24153 -7.94551,8.27595 -11.77113,19.58642 -11.77113,34.20727 l -29.42783,-3.31038 c 2.35423,-22.06921 9.71118,-38.62111 22.36515,-49.65572 13.24252,-11.58633 31.1935,-17.65536 54.1472,-17.65536 21.7766,0 39.4333,6.34489 52.9701,18.75882 13.24252,11.8622 20.01092,27.31065 20.01092,46.34534 0,8.82769 -2.05995,18.2071 -5.88557,27.58651 -4.11989,8.82769 -10.59401,18.48297 -20.01092,28.68997 -8.82835,9.65528 -23.24798,23.172674 -43.55319,40.828042 -17.36242,14.896716 -28.83927,24.82786 -34.13628,29.793432 -4.70845,5.241437 -8.82835,10.482874 -11.77113,15.448446 z m 210.70322,-55.173022 31.7821,8.827683 c -7.0627,25.103725 -19.4224,44.690148 -36.4905,58.483404 -16.4796,13.2415255 -37.0791,19.8622883 -61.2099,19.8622883 -25.3079,0 -45.6131,-4.96557207 -61.2099,-15.4484463 -15.891,-10.207009 -27.95642,-24.82786 -36.49049,-44.138418 -7.94552,-19.862288 -11.77114,-41.103902 -11.77114,-64.000709 0,-24.27613 4.70846,-45.51774 14.12536,-64.0007 9.41691,-18.2071 22.36517,-32.00036 38.84477,-40.82804 17.0681,-9.37941 36.4905,-14.34499 57.6785,-14.34499 23.5423,0 42.9646,6.06904 58.8557,17.65537 15.5967,11.8622 26.485,28.68997 32.9591,50.75918 l -30.6049,6.62076 c -4.7085,-16.82777 -12.654,-28.96583 -23.5423,-36.41419 -10.2997,-8.00009 -23.248,-12.13807 -38.8447,-12.13807 -18.2453,0 -33.5477,4.41385 -45.9074,13.24153 -11.7711,8.27595 -20.0109,19.58642 -24.7194,34.20727 -4.7084,14.89672 -7.0627,29.79344 -7.0627,45.24188 0,19.862291 2.6485,37.517658 8.2398,52.966104 6.1799,14.896716 15.3025,25.931321 27.0736,33.103814 12.3597,7.448358 25.8965,11.034604 40.0219,11.034604 17.0681,0 31.782,-4.965572 43.5532,-15.448446 12.3596,-10.207009 20.5994,-25.37959 24.7193,-45.241878 z M 1357.444,-27.48852 V 0.09799145 h -155.3789 c 0,-6.62076275 1.1771,-13.24152545 3.5313,-19.86228845 3.8256,-10.207009 10.0055,-20.414018 18.8338,-30.896892 8.5341,-10.20701 21.1881,-22.345074 37.6676,-36.414195 25.8965,-20.414016 42.9647,-36.690056 51.793,-48.552256 9.4169,-12.41393 14.1254,-24.27613 14.1254,-35.31074 0,-11.58633 -4.4142,-21.24161 -12.9483,-28.68997 -7.9455,-8.00009 -18.5395,-12.13807 -31.782,-12.13807 -14.1254,0 -25.6022,4.41385 -34.1363,13.24153 -7.9455,8.27595 -11.7711,19.58642 -11.7711,34.20727 l -29.4279,-3.31038 c 2.3543,-22.06921 9.7112,-38.62111 22.3652,-49.65572 13.2425,-11.58633 31.1935,-17.65536 54.1472,-17.65536 21.7766,0 39.4333,6.34489 52.9701,18.75882 13.2425,11.8622 20.0109,27.31065 20.0109,46.34534 0,8.82769 -2.0599,18.2071 -5.8856,27.58651 -4.1199,8.82769 -10.594,18.48297 -20.0109,28.68997 -8.8283,9.65528 -23.248,23.172674 -43.5532,40.828042 -17.3624,14.896716 -28.8392,24.82786 -34.1363,29.793432 -4.7084,5.241437 -8.8283,10.482874 -11.7711,15.448446 z m 10.8883,92.690678 V 44.23641 h 190.6923 v 20.965748 z m 202.1692,-140.139477 29.4278,-3.310382 c 1.4714,11.8622 4.7085,21.793344 9.4169,29.793433 5.297,7.448358 13.2425,13.241525 23.5423,17.655367 10.8883,4.413842 22.9537,6.620763 36.4905,6.620763 11.7711,0 21.7766,-1.379326 30.6049,-4.413842 9.4169,-3.586247 16.4796,-8.275954 21.1881,-14.344986 4.7084,-6.620763 7.0626,-13.517391 7.0626,-20.965749 0,-7.172493 -2.3542,-13.51739 -7.0626,-18.758827 -4.1199,-5.793168 -11.1826,-10.482875 -21.1881,-14.344986 -6.4741,-2.206921 -20.5995,-5.793172 -42.376,-11.034602 -21.1881,-4.96557 -36.1963,-9.93115 -44.7303,-14.34499 -11.1826,-5.79317 -19.4224,-13.24152 -24.7194,-22.06921 -5.5913,-8.82768 -8.2398,-18.75883 -8.2398,-29.79343 0,-11.58633 2.9428,-22.62094 9.4169,-33.10381 7.0627,-10.20701 16.7739,-17.93124 29.4278,-23.17267 13.2425,-4.96558 27.6622,-7.72423 43.5532,-7.72423 17.0681,0 32.3706,3.03452 45.9074,8.82769 13.2425,5.24143 23.5423,13.24152 30.605,24.27613 7.0626,11.0346 10.8883,23.17267 11.7711,36.41419 l -29.4278,2.20692 c -1.7657,-14.62085 -7.0627,-25.65545 -16.4796,-33.10381 -9.4169,-7.17249 -23.248,-11.0346 -41.199,-11.0346 -18.8338,0 -32.6649,3.31038 -41.1989,9.93114 -8.8284,6.62076 -12.9483,14.89672 -12.9483,24.27613 0,8.82768 2.9428,16.00018 9.4169,20.96575 6.1799,6.06903 21.7766,11.8622 47.0845,17.65536 25.0137,5.24144 42.3761,9.93115 51.793,14.34499 13.2425,6.62076 22.9537,14.89672 29.4279,24.276131 7.0626,9.655279 10.594,20.689883 10.594,33.103813 0,12.689796 -3.5314,24.27613 -10.594,35.310735 -7.0627,11.034604 -17.3625,19.862288 -30.605,26.4830506 -13.5368,5.7931674 -28.8393,8.8276837 -45.9074,8.8276837 -21.188,0 -38.8447,-3.0345163 -52.9701,-8.8276837 -14.1253,-6.6207626 -25.6022,-16.0001766 -34.1363,-28.6899716 -7.9455,-12.41393 -12.3597,-26.483051 -12.9482,-41.931497 z m 394.0386,-7.724223 31.7821,8.827683 c -7.0627,25.103725 -19.4224,44.690148 -36.4905,58.483404 -16.4796,13.2415255 -37.0791,19.8622883 -61.2099,19.8622883 -25.308,0 -45.6132,-4.96557207 -61.2099,-15.4484463 -15.891,-10.207009 -27.9564,-24.82786 -36.4905,-44.138418 -7.9455,-19.862288 -11.7711,-41.103902 -11.7711,-64.000709 0,-24.27613 4.7084,-45.51774 14.1253,-64.0007 9.4169,-18.2071 22.3652,-32.00036 38.8447,-40.82804 17.0682,-9.37941 36.4906,-14.34499 57.6786,-14.34499 23.5423,0 42.9646,6.06904 58.8556,17.65537 15.5968,11.8622 26.4851,28.68997 32.9592,50.75918 l -30.6049,6.62076 c -4.7085,-16.82777 -12.654,-28.96583 -23.5423,-36.41419 -10.2997,-8.00009 -23.248,-12.13807 -38.8447,-12.13807 -18.2453,0 -33.5478,4.41385 -45.9074,13.24153 -11.7712,8.27595 -20.011,19.58642 -24.7194,34.20727 -4.7085,14.89672 -7.0627,29.79344 -7.0627,45.24188 0,19.862291 2.6485,37.517658 8.2398,52.966104 6.1798,14.896716 15.3025,25.931321 27.0736,33.103814 12.3597,7.448358 25.8965,11.034604 40.0218,11.034604 17.0682,0 31.7821,-4.965572 43.5532,-15.448446 12.3597,-10.207009 20.5995,-25.37959 24.7194,-45.241878 z m 70.9211,82.75953345 V -234.93908 h 31.782 v 207.45056 h 115.3571 V 0.09799145 Z m 156.8503,4.41384185 68.2726,-242.7613033 h 22.3651 L 2215.8538,4.5118333 Z m 112.4143,-66.2076273 28.2507,-4.413842 c 2.9428,17.103637 8.5341,29.241702 16.4796,36.414195 8.5341,6.620763 18.2453,9.931144 29.4278,9.931144 13.2426,0 24.7194,-4.413841 34.1363,-13.241525 9.4169,-9.379414 14.1254,-21.241614 14.1254,-35.310735 0,-13.241525 -4.4142,-24.27613 -12.9483,-33.103813 -8.8283,-8.82768 -19.7166,-13.24153 -32.9591,-13.24153 -5.5913,0 -12.3597,1.10346 -20.011,3.31039 l 3.5314,-25.37959 c 1.4714,0.82759 2.9428,1.10346 4.7084,1.10346 11.7712,0 22.3652,-3.31039 31.7821,-9.93115 10.0055,-6.62076 15.3025,-16.5519 15.3025,-29.79343 0,-10.20701 -3.5314,-18.75883 -10.5941,-25.37959 -7.0626,-7.17249 -16.1853,-11.03461 -27.0736,-11.03461 -11.7711,0 -21.7766,3.86212 -29.4278,11.03461 -7.0627,6.62076 -11.4768,17.10364 -12.9482,30.89689 l -29.4279,-4.41384 c 3.8257,-19.86229 11.7712,-34.759 23.5423,-45.24188 12.3597,-10.20701 28.2507,-15.44844 47.0845,-15.44844 12.3597,0 24.1308,2.75865 35.3134,7.72422 10.8883,5.24144 19.1281,12.68979 24.7194,22.06921 5.297,9.65528 8.2398,19.86229 8.2398,30.89689 0,10.48287 -2.9428,19.58642 -8.2398,27.58651 -5.5913,8.27595 -13.5368,14.89672 -23.5423,19.86229 13.2426,3.03452 23.8366,9.65528 31.7821,19.86229 7.6512,10.482872 11.7711,22.896802 11.7711,37.517653 0,20.689883 -7.6512,38.345251 -22.3651,52.966102 -15.0082,14.0691204 -33.842,20.9657483 -56.5015,20.9657483 -20.5994,0 -37.6676,-6.0690325 -51.7929,-18.7588273 -13.5368,-12.413931 -20.8938,-28.138242 -22.3652,-47.4488 z M 2562.5136,0.09799145 2471.8759,-234.93908 h 34.1363 l 60.0327,171.036365 c 5.297,13.241526 9.7112,26.207186 12.9483,38.621116 3.8256,-13.241525 8.2398,-25.931321 12.9482,-38.621116 l 62.387,-171.036365 h 31.7821 L 2594.2956,0.09799145 Z m 138.6051,-61.79378545 28.2507,-4.413842 c 2.9428,17.103637 8.5341,29.241702 16.4796,36.414195 8.534,6.620763 18.2452,9.931144 29.4278,9.931144 13.2425,0 24.7194,-4.413841 34.1363,-13.241525 9.4169,-9.379414 14.1253,-21.241614 14.1253,-35.310735 0,-13.241525 -4.4141,-24.27613 -12.9482,-33.103813 -8.8284,-8.82768 -19.7167,-13.24153 -32.9592,-13.24153 -5.5913,0 -12.3597,1.10346 -20.0109,3.31039 l 3.5313,-25.37959 c 1.4714,0.82759 2.9428,1.10346 4.7085,1.10346 11.7711,0 22.3651,-3.31039 31.782,-9.93115 10.0055,-6.62076 15.3025,-16.5519 15.3025,-29.79343 0,-10.20701 -3.5313,-18.75883 -10.594,-25.37959 -7.0627,-7.17249 -16.1853,-11.03461 -27.0736,-11.03461 -11.7711,0 -21.7766,3.86212 -29.4278,11.03461 -7.0627,6.62076 -11.4769,17.10364 -12.9483,30.89689 l -29.4278,-4.41384 c 3.8256,-19.86229 11.7711,-34.759 23.5423,-45.24188 12.3596,-10.20701 28.2507,-15.44844 47.0845,-15.44844 12.3597,0 24.1308,2.75865 35.3134,7.72422 10.8883,5.24144 19.1281,12.68979 24.7194,22.06921 5.297,9.65528 8.2397,19.86229 8.2397,30.89689 0,10.48287 -2.9427,19.58642 -8.2397,27.58651 -5.5913,8.27595 -13.5368,14.89672 -23.5423,19.86229 13.2425,3.03452 23.8365,9.65528 31.782,19.86229 7.6513,10.482872 11.7712,22.896802 11.7712,37.517653 0,20.689883 -7.6513,38.345251 -22.3652,52.966102 -15.0082,14.0691204 -33.842,20.9657483 -56.5014,20.9657483 -20.5995,0 -37.6676,-6.0690325 -51.793,-18.7588273 -13.5368,-12.413931 -20.8937,-28.138242 -22.3651,-47.4488 z m 0,0"
       style="fill:#ff0000;fill-opacity:1;fill-rule:nonzero;stroke:none"
       aria-label="P22/I2C2_SCL/3V3"
       transform="matrix(0.013274,0,0,0.01416,5941.7542,381.75642)" />
    <path
       id="path10882"
       d="M 274.72,388.79999 H 207.36"
       style="fill:none;stroke:#800040;stroke-width:0.48;stroke-linecap:round;stroke-linejoin:round;stroke-miterlimit:10;stroke-dasharray:none;stroke-opacity:1"
       transform="translate(5712.8003)" />
    <path
       id="path10883"
       d="m 207.36,388.79999 v 0"
       style="fill:none;stroke:#800040;stroke-width:0.48;stroke-linecap:round;stroke-linejoin:round;stroke-miterlimit:10;stroke-dasharray:none;stroke-opacity:1"
       transform="translate(5712.8003)" />
    <path
       id="path10884"
       d="m 0,0 c 0,-0.53 -0.42,-0.96 -0.96,-0.96 -0.54,0 -0.96,0.43 -0.96,0.96 0,0.53 0.42,0.96 0.96,0.96 C -0.42,0.96 0,0.53 0,0 Z"
       style="fill:#ff00ff;fill-opacity:1;fill-rule:evenodd;stroke:#ff00ff;stroke-width:0.48;stroke-linecap:round;stroke-linejoin:round;stroke-miterlimit:10;stroke-dasharray:none;stroke-opacity:1"
       transform="translate(5920.9603,388.64002)" />
    <path
       id="path10885"
       d="M 24.657634,-0.00902189 V -235.0461 h 89.460596 c 14.71392,0 26.48505,0.8276 35.3134,2.20692 10.88829,2.20692 20.3052,6.3449 28.25071,12.13807 7.65124,5.24143 14.12536,12.68979 18.83381,22.06921 4.70846,9.65528 7.06268,20.41402 7.06268,32.00035 0,19.86229 -6.47412,36.96593 -18.83381,50.75918 -12.65396,14.06912 -35.31339,20.965749 -68.27256,20.965749 H 56.439689 V -0.00902189 Z M 56.439689,-123.59659 h 60.032771 c 20.3052,0 34.43056,-3.58625 42.37607,-11.03461 8.53407,-7.17249 12.94825,-17.65536 12.94825,-30.89689 0,-10.20701 -2.35423,-18.75883 -7.06268,-25.37959 -4.70845,-7.17249 -11.47685,-12.13807 -20.01092,-14.34499 -4.70846,-1.37932 -14.12536,-2.20692 -28.25072,-2.20692 H 56.439689 Z M 381.02864,-27.595533 V -0.00902189 H 225.6497 c 0,-6.62076271 1.17712,-13.24152511 3.53134,-19.86228811 3.82562,-10.207009 10.00547,-20.414018 18.83381,-30.896893 8.53408,-10.207009 21.18804,-22.345074 37.66763,-36.414195 25.89649,-20.414022 42.96463,-36.690062 51.79297,-48.552262 9.41691,-12.41393 14.12536,-24.27613 14.12536,-35.31073 0,-11.58634 -4.41417,-21.24162 -12.94824,-28.68997 -7.94552,-8.00009 -18.53953,-12.13807 -31.78206,-12.13807 -14.12536,0 -25.60221,4.41384 -34.13628,13.24153 -7.94551,8.27595 -11.77113,19.58642 -11.77113,34.20727 l -29.42783,-3.31038 c 2.35423,-22.06921 9.71118,-38.62112 22.36515,-49.65572 13.24252,-11.58634 31.1935,-17.65537 54.14721,-17.65537 21.77659,0 39.43329,6.3449 52.97009,18.75883 13.24252,11.8622 20.01092,27.31065 20.01092,46.34534 0,8.82768 -2.05995,18.2071 -5.88556,27.58651 -4.1199,8.82768 -10.59402,18.48296 -20.01093,28.68997 -8.82835,9.65528 -23.24798,23.172671 -43.55318,40.828038 -17.36242,14.896716 -28.83928,24.82786 -34.13629,29.793432 -4.70845,5.241438 -8.82834,10.482875 -11.77113,15.448447 z m 29.72211,-34.207274 28.25071,-4.413842 c 2.94279,17.103637 8.53407,29.241702 16.47959,36.414195 8.53407,6.620763 18.24525,9.931144 29.42783,9.931144 13.24252,0 24.71937,-4.413842 34.13628,-13.241525 9.4169,-9.379414 14.12536,-21.241614 14.12536,-35.310735 0,-13.241525 -4.41418,-24.27613 -12.94825,-33.10381 -8.82835,-8.82769 -19.71664,-13.24153 -32.95917,-13.24153 -5.59128,0 -12.35968,1.10346 -20.01092,3.31038 l 3.53134,-25.37959 c 1.47139,0.8276 2.94278,1.10346 4.70845,1.10346 11.77113,0 22.36515,-3.31038 31.78206,-9.93114 10.00546,-6.62076 15.30247,-16.55191 15.30247,-29.79343 0,-10.20701 -3.53134,-18.75883 -10.59402,-25.37959 -7.06268,-7.1725 -16.18531,-11.03461 -27.0736,-11.03461 -11.77113,0 -21.7766,3.86211 -29.42783,11.03461 -7.06268,6.62076 -11.47686,17.10363 -12.94825,30.89689 l -29.42783,-4.41384 c 3.82562,-19.86229 11.77114,-34.75901 23.54227,-45.24188 12.35969,-10.20701 28.25071,-15.44845 47.08452,-15.44845 12.35969,0 24.13082,2.75865 35.3134,7.72423 10.8883,5.24143 19.12809,12.68979 24.71937,22.0692 5.29701,9.65528 8.2398,19.86229 8.2398,30.8969 0,10.48287 -2.94279,19.58642 -8.2398,27.58651 -5.59128,8.27595 -13.5368,14.89671 -23.54226,19.86229 13.24252,3.03451 23.83654,9.65528 31.78206,19.86228 7.65123,10.482879 11.77113,22.896809 11.77113,37.51766 0,20.689883 -7.65124,38.34525 -22.36515,52.966101 -15.00819,14.0691211 -33.842,20.9657489 -56.50143,20.9657489 -20.59948,0 -37.66762,-6.0690325 -51.79298,-18.7588279 -13.5368,-12.41393 -20.89376,-28.138241 -22.36515,-47.448799 z M 579.96076,4.4048199 648.23333,-238.35648 h 22.36515 L 603.50303,4.4048199 Z M 705.61759,-0.00902189 V -235.0461 h 30.60495 V -0.00902189 Z M 934.86038,-27.595533 V -0.00902189 H 779.48144 c 0,-6.62076271 1.17712,-13.24152511 3.53134,-19.86228811 3.82562,-10.207009 10.00546,-20.414018 18.83381,-30.896893 8.53407,-10.207009 21.18804,-22.345074 37.66762,-36.414195 25.89649,-20.414022 42.96463,-36.690062 51.79298,-48.552262 9.41691,-12.41393 14.12536,-24.27613 14.12536,-35.31073 0,-11.58634 -4.41417,-21.24162 -12.94824,-28.68997 -7.94552,-8.00009 -18.53954,-12.13807 -31.78206,-12.13807 -14.12536,0 -25.60221,4.41384 -34.13628,13.24153 -7.94551,8.27595 -11.77113,19.58642 -11.77113,34.20727 l -29.42783,-3.31038 c 2.35423,-22.06921 9.71118,-38.62112 22.36515,-49.65572 13.24252,-11.58634 31.1935,-17.65537 54.1472,-17.65537 21.7766,0 39.4333,6.3449 52.9701,18.75883 13.24252,11.8622 20.01092,27.31065 20.01092,46.34534 0,8.82768 -2.05995,18.2071 -5.88557,27.58651 -4.11989,8.82768 -10.59401,18.48296 -20.01092,28.68997 -8.82835,9.65528 -23.24798,23.172671 -43.55319,40.828038 -17.36242,14.896716 -28.83927,24.82786 -34.13628,29.793432 -4.70845,5.241438 -8.82835,10.482875 -11.77113,15.448447 z m 210.70322,-55.173023 31.7821,8.827684 c -7.0627,25.103725 -19.4224,44.690148 -36.4905,58.483404 -16.4796,13.2415252 -37.0791,19.8622879 -61.2099,19.8622879 -25.3079,0 -45.6131,-4.96557202 -61.2099,-15.4484459 -15.891,-10.20701 -27.95642,-24.827861 -36.49049,-44.138418 -7.94552,-19.862289 -11.77114,-41.103902 -11.77114,-64.000706 0,-24.27613 4.70846,-45.51774 14.12536,-64.00071 9.41691,-18.20709 22.36517,-32.00035 38.84477,-40.82803 17.0681,-9.37942 36.4905,-14.34499 57.6785,-14.34499 23.5423,0 42.9646,6.06903 58.8557,17.65537 15.5967,11.8622 26.485,28.68997 32.9591,50.75918 l -30.6049,6.62076 c -4.7085,-16.82777 -12.654,-28.96584 -23.5423,-36.41419 -10.2997,-8.00009 -23.248,-12.13807 -38.8447,-12.13807 -18.2453,0 -33.5477,4.41384 -45.9074,13.24153 -11.7711,8.27595 -20.0109,19.58642 -24.7194,34.20727 -4.7084,14.89672 -7.0627,29.79343 -7.0627,45.24188 0,19.862287 2.6485,37.517655 8.2398,52.966101 6.1799,14.896716 15.3025,25.931321 27.0736,33.103814 12.3597,7.448358 25.8965,11.034604 40.0219,11.034604 17.0681,0 31.782,-4.965572 43.5532,-15.448446 12.3596,-10.207009 20.5994,-25.379591 24.7193,-45.241879 z m 211.8804,55.173023 v 27.58651111 h -155.3789 c 0,-6.62076271 1.1771,-13.24152511 3.5313,-19.86228811 3.8256,-10.207009 10.0055,-20.414018 18.8338,-30.896893 8.5341,-10.207009 21.1881,-22.345074 37.6676,-36.414195 25.8965,-20.414022 42.9647,-36.690062 51.793,-48.552262 9.4169,-12.41393 14.1254,-24.27613 14.1254,-35.31073 0,-11.58634 -4.4142,-21.24162 -12.9483,-28.68997 -7.9455,-8.00009 -18.5395,-12.13807 -31.782,-12.13807 -14.1254,0 -25.6022,4.41384 -34.1363,13.24153 -7.9455,8.27595 -11.7711,19.58642 -11.7711,34.20727 l -29.4279,-3.31038 c 2.3543,-22.06921 9.7112,-38.62112 22.3652,-49.65572 13.2425,-11.58634 31.1935,-17.65537 54.1472,-17.65537 21.7766,0 39.4333,6.3449 52.9701,18.75883 13.2425,11.8622 20.0109,27.31065 20.0109,46.34534 0,8.82768 -2.0599,18.2071 -5.8856,27.58651 -4.1199,8.82768 -10.594,18.48296 -20.0109,28.68997 -8.8283,9.65528 -23.248,23.172671 -43.5532,40.828038 -17.3624,14.896716 -28.8392,24.82786 -34.1363,29.793432 -4.7084,5.241438 -8.8283,10.482875 -11.7711,15.448447 z m 10.8883,92.690678 V 44.129396 h 190.6923 v 20.965749 z m 202.1692,-140.139478 29.4278,-3.310381 c 1.4714,11.8622 4.7085,21.793344 9.4169,29.793432 5.297,7.448358 13.2425,13.241526 23.5423,17.655367 10.8883,4.413842 22.9537,6.620763 36.4905,6.620763 11.7711,0 21.7766,-1.379325 30.6049,-4.413842 9.4169,-3.586246 16.4796,-8.275953 21.1881,-14.344986 4.7084,-6.620762 7.0626,-13.51739 7.0626,-20.965748 0,-7.172493 -2.3542,-13.517391 -7.0626,-18.758828 -4.1199,-5.793167 -11.1826,-10.482874 -21.1881,-14.344986 -6.4741,-2.206921 -20.5995,-5.793168 -42.376,-11.034608 -21.1881,-4.96557 -36.1963,-9.93114 -44.7303,-14.34498 -11.1826,-5.79317 -19.4224,-13.24153 -24.7194,-22.06921 -5.5913,-8.82768 -8.2398,-18.75883 -8.2398,-29.79343 0,-11.58634 2.9428,-22.62094 9.4169,-33.10382 7.0627,-10.20701 16.7739,-17.93123 29.4278,-23.17267 13.2425,-4.96557 27.6622,-7.72422 43.5532,-7.72422 17.0681,0 32.3706,3.03452 45.9074,8.82768 13.2425,5.24144 23.5423,13.24153 30.605,24.27613 7.0626,11.03461 10.8883,23.17267 11.7711,36.4142 l -29.4278,2.20692 c -1.7657,-14.62085 -7.0627,-25.65546 -16.4796,-33.10381 -9.4169,-7.1725 -23.248,-11.03461 -41.199,-11.03461 -18.8338,0 -32.6649,3.31038 -41.1989,9.93115 -8.8284,6.62076 -12.9483,14.89671 -12.9483,24.27613 0,8.82768 2.9428,16.00017 9.4169,20.96574 6.1799,6.06904 21.7766,11.8622 47.0845,17.65537 25.0137,5.24144 42.3761,9.93115 51.793,14.34499 13.2425,6.62076 22.9537,14.89671 29.4279,24.276127 7.0626,9.655279 10.594,20.689884 10.594,33.103814 0,12.689795 -3.5314,24.27613 -10.594,35.310734 -7.0627,11.034605 -17.3625,19.862289 -30.605,26.4830513 -13.5368,5.7931674 -28.8393,8.8276836 -45.9074,8.8276836 -21.188,0 -38.8447,-3.0345162 -52.9701,-8.8276836 -14.1253,-6.6207623 -25.6022,-16.0001763 -34.1363,-28.6899713 -7.9455,-12.413931 -12.3597,-26.483051 -12.9482,-41.931498 z M 1797.39,-0.00902189 V -235.0461 h 81.2209 c 17.9509,0 31.782,1.10346 41.1989,3.31038 14.1254,3.86211 25.8965,9.65528 35.3134,17.65537 11.7711,10.48287 20.5995,23.7244 27.0736,39.72458 6.1799,16.27604 9.4169,35.03487 9.4169,56.27648 0,17.65537 -2.3542,33.655544 -7.0627,47.448799 -4.1199,13.241526 -9.1226,24.82786 -15.3024,34.207274 -6.4742,8.827684 -13.5368,16.000177 -21.1881,20.965749 -7.9455,5.241437 -17.3624,9.3794136 -28.2507,12.1380648 -11.1826,2.2069209 -23.5423,3.31038131 -37.6676,3.31038131 z m 31.7821,-27.58651111 h 49.4388 c 15.5967,0 27.6621,-1.379326 36.4905,-4.413842 8.534,-2.758651 15.5967,-6.896628 21.188,-12.138065 7.0627,-7.172493 12.3597,-17.103637 16.4796,-29.793432 4.7084,-12.41393 7.0627,-27.586508 7.0627,-45.241878 0,-24.27613 -4.4142,-43.03496 -12.9483,-56.27648 -7.9455,-13.24153 -17.3624,-22.06921 -28.2507,-26.48305 -8.8284,-3.58625 -22.0709,-5.51731 -40.0218,-5.51731 h -49.4388 z M 2011.9189,-0.00902189 2101.3795,-235.0461 h 32.9592 l 96.5233,235.03707811 h -35.3134 L 2168.475,-70.630491 h -98.8775 l -24.7194,70.62146911 z m 67.0955,-96.00105911 h 78.8665 l -23.5422,-65.104169 c -7.9455,-19.86229 -13.5368,-35.86246 -16.4796,-48.55226 -3.2371,14.89672 -7.6512,29.51757 -12.9482,44.13842 z M 2231.4505,4.4048199 2299.7231,-238.35648 h 22.3651 L 2254.9928,4.4048199 Z m 109.1773,-66.2076269 28.2507,-4.413842 c 2.9428,17.103637 8.534,29.241702 16.4796,36.414195 8.534,6.620763 18.2452,9.931144 29.4278,9.931144 13.2425,0 24.7194,-4.413842 34.1363,-13.241525 9.4169,-9.379414 14.1253,-21.241614 14.1253,-35.310735 0,-13.241525 -4.4141,-24.27613 -12.9482,-33.10381 -8.8284,-8.82769 -19.7167,-13.24153 -32.9592,-13.24153 -5.5913,0 -12.3597,1.10346 -20.0109,3.31038 l 3.5313,-25.37959 c 1.4714,0.8276 2.9428,1.10346 4.7085,1.10346 11.7711,0 22.3651,-3.31038 31.782,-9.93114 10.0055,-6.62076 15.3025,-16.55191 15.3025,-29.79343 0,-10.20701 -3.5313,-18.75883 -10.594,-25.37959 -7.0627,-7.1725 -16.1853,-11.03461 -27.0736,-11.03461 -11.7711,0 -21.7766,3.86211 -29.4278,11.03461 -7.0627,6.62076 -11.4769,17.10363 -12.9483,30.89689 l -29.4278,-4.41384 c 3.8256,-19.86229 11.7711,-34.75901 23.5423,-45.24188 12.3596,-10.20701 28.2507,-15.44845 47.0845,-15.44845 12.3597,0 24.1308,2.75865 35.3134,7.72423 10.8883,5.24143 19.1281,12.68979 24.7193,22.0692 5.2971,9.65528 8.2398,19.86229 8.2398,30.8969 0,10.48287 -2.9427,19.58642 -8.2398,27.58651 -5.5912,8.27595 -13.5368,14.89671 -23.5422,19.86229 13.2425,3.03451 23.8365,9.65528 31.782,19.86228 7.6513,10.482879 11.7712,22.896809 11.7712,37.51766 0,20.689883 -7.6513,38.34525 -22.3652,52.966101 -15.0082,14.0691211 -33.842,20.9657489 -56.5014,20.9657489 -20.5995,0 -37.6676,-6.0690325 -51.793,-18.7588279 -13.5368,-12.41393 -20.8937,-28.138241 -22.3651,-47.448799 z M 2598.7098,-0.00902189 2508.0721,-235.0461 h 34.1363 l 60.0328,171.036372 c 5.297,13.241525 9.7111,26.207186 12.9482,38.621116 3.8256,-13.241526 8.2398,-25.931321 12.9483,-38.621116 l 62.3869,-171.036372 h 31.7821 l -91.8148,235.03707811 z m 138.3108,-61.79378511 28.2507,-4.413842 c 2.9428,17.103637 8.5341,29.241702 16.4796,36.414195 8.5341,6.620763 18.2453,9.931144 29.4278,9.931144 13.2426,0 24.7194,-4.413842 34.1363,-13.241525 9.4169,-9.379414 14.1254,-21.241614 14.1254,-35.310735 0,-13.241525 -4.4142,-24.27613 -12.9483,-33.10381 -8.8283,-8.82769 -19.7166,-13.24153 -32.9591,-13.24153 -5.5913,0 -12.3597,1.10346 -20.011,3.31038 l 3.5314,-25.37959 c 1.4714,0.8276 2.9428,1.10346 4.7084,1.10346 11.7712,0 22.3652,-3.31038 31.7821,-9.93114 10.0055,-6.62076 15.3025,-16.55191 15.3025,-29.79343 0,-10.20701 -3.5314,-18.75883 -10.5941,-25.37959 -7.0626,-7.1725 -16.1853,-11.03461 -27.0736,-11.03461 -11.7711,0 -21.7765,3.86211 -29.4278,11.03461 -7.0627,6.62076 -11.4768,17.10363 -12.9482,30.89689 l -29.4279,-4.41384 c 3.8257,-19.86229 11.7712,-34.75901 23.5423,-45.24188 12.3597,-10.20701 28.2507,-15.44845 47.0845,-15.44845 12.3597,0 24.1309,2.75865 35.3134,7.72423 10.8883,5.24143 19.1281,12.68979 24.7194,22.0692 5.297,9.65528 8.2398,19.86229 8.2398,30.8969 0,10.48287 -2.9428,19.58642 -8.2398,27.58651 -5.5913,8.27595 -13.5368,14.89671 -23.5423,19.86229 13.2426,3.03451 23.8366,9.65528 31.7821,19.86228 7.6512,10.482879 11.7711,22.896809 11.7711,37.51766 0,20.689883 -7.6512,38.34525 -22.3651,52.966101 -15.0082,14.0691211 -33.842,20.9657489 -56.5015,20.9657489 -20.5994,0 -37.6676,-6.0690325 -51.7929,-18.7588279 -13.5368,-12.41393 -20.8938,-28.138241 -22.3652,-47.448799 z m 0,0"
       style="fill:#ff0000;fill-opacity:1;fill-rule:nonzero;stroke:none"
       aria-label="P23/I2C2_SDA/3V3"
       transform="matrix(0.013274,0,0,0.01416,5941.7542,387.03528)" />
    <path
       id="path10932"
       d="m 0,0 c 0,-0.53 -0.42,-0.96 -0.96,-0.96 -0.54,0 -0.96,0.43 -0.96,0.96 0,0.53 0.42,0.96 0.96,0.96 C -0.42,0.96 0,0.53 0,0 Z"
       style="fill:#ff00ff;fill-opacity:1;fill-rule:evenodd;stroke:#ff00ff;stroke-width:0.48;stroke-linecap:round;stroke-linejoin:round;stroke-miterlimit:10;stroke-dasharray:none;stroke-opacity:1"
       transform="translate(5895.0403,347.20002)" />
    <path
       id="path10933"
       d="m 0,0 c 0,-0.53 -0.42,-0.96 -0.96,-0.96 -0.54,0 -0.96,0.43 -0.96,0.96 0,0.53 0.42,0.96 0.96,0.96 C -0.42,0.96 0,0.53 0,0 Z"
       style="fill:#ff00ff;fill-opacity:1;fill-rule:evenodd;stroke:#ff00ff;stroke-width:0.48;stroke-linecap:round;stroke-linejoin:round;stroke-miterlimit:10;stroke-dasharray:none;stroke-opacity:1"
       transform="translate(5895.0403,383.51999)" />
    <path
       id="path10934"
       d="m 0,0 c 0,-0.53 -0.42,-0.96 -0.96,-0.96 -0.54,0 -0.96,0.43 -0.96,0.96 0,0.53 0.42,0.96 0.96,0.96 C -0.42,0.96 0,0.53 0,0 Z"
       style="fill:#ff00ff;fill-opacity:1;fill-rule:evenodd;stroke:#ff00ff;stroke-width:0.48;stroke-linecap:round;stroke-linejoin:round;stroke-miterlimit:10;stroke-dasharray:none;stroke-opacity:1"
       transform="translate(5920.9603,388.64002)" />
  </g>
</svg>
