<?xml version="1.0" encoding="UTF-8" standalone="no"?>
<!-- Created with Inkscape (http://www.inkscape.org/) -->

<svg
   version="1.1"
   id="svg1"
   width="119.84004"
   height="47.079048"
   viewBox="0 0 119.84004 47.079048"
   sodipodi:docname="beagley-ai-poe-header.svg"
   inkscape:export-filename="beagley-ai-poe-header.png"
   inkscape:export-xdpi="427"
   inkscape:export-ydpi="427"
   inkscape:version="1.3.2 (091e20e, 2023-11-25)"
   xmlns:inkscape="http://www.inkscape.org/namespaces/inkscape"
   xmlns:sodipodi="http://sodipodi.sourceforge.net/DTD/sodipodi-0.dtd"
   xmlns="http://www.w3.org/2000/svg"
   xmlns:svg="http://www.w3.org/2000/svg">
  <sodipodi:namedview
     id="namedview1"
     pagecolor="#ffffff"
     bordercolor="#000000"
     borderopacity="0.25"
     inkscape:showpageshadow="2"
     inkscape:pageopacity="0.0"
     inkscape:pagecheckerboard="0"
     inkscape:deskcolor="#d1d1d1"
     inkscape:zoom="3.3532338"
     inkscape:cx="59.793027"
     inkscape:cy="35.040801"
     inkscape:window-width="1792"
     inkscape:window-height="990"
     inkscape:window-x="0"
     inkscape:window-y="25"
     inkscape:window-maximized="1"
     inkscape:current-layer="g6045" />
  <defs
     id="defs1" />
  <g
     id="g6045"
     transform="translate(-3150.4801,-346.96001)">
    <path
       id="path8897"
       d="m 938.23999,352.48001 h -25.91998 v 25.91998 h 25.91998 z"
       style="fill:none;stroke:#0000ff;stroke-width:0.48;stroke-linecap:round;stroke-linejoin:miter;stroke-miterlimit:10;stroke-dasharray:none;stroke-opacity:1"
       transform="translate(2285.1201)" />
    <path
       id="path8898"
       d="m 922.71997,352.48001 v -5.28"
       style="fill:none;stroke:#0000ff;stroke-width:0.48;stroke-linecap:round;stroke-linejoin:round;stroke-miterlimit:10;stroke-dasharray:none;stroke-opacity:1"
       transform="translate(2285.1201)" />
    <path
       id="path8899"
       d="m 922.71997,347.20001 v 0"
       style="fill:none;stroke:#0000ff;stroke-width:0.48;stroke-linecap:round;stroke-linejoin:round;stroke-miterlimit:10;stroke-dasharray:none;stroke-opacity:1"
       transform="translate(2285.1201)" />
    <path
       id="path8900"
       d="m 922.71997,347.20001 h 5.12006"
       style="fill:none;stroke:#0000ff;stroke-width:0.48;stroke-linecap:round;stroke-linejoin:round;stroke-miterlimit:10;stroke-dasharray:none;stroke-opacity:1"
       transform="translate(2285.1201)" />
    <path
       id="path8901"
       d="m 927.84003,347.20001 v 0"
       style="fill:none;stroke:#0000ff;stroke-width:0.48;stroke-linecap:round;stroke-linejoin:round;stroke-miterlimit:10;stroke-dasharray:none;stroke-opacity:1"
       transform="translate(2285.1201)" />
    <path
       id="path8902"
       d="m 927.84003,347.20001 v 5.28"
       style="fill:none;stroke:#0000ff;stroke-width:0.48;stroke-linecap:round;stroke-linejoin:round;stroke-miterlimit:10;stroke-dasharray:none;stroke-opacity:1"
       transform="translate(2285.1201)" />
    <path
       id="path8903"
       d="m 927.84003,352.48001 v 0"
       style="fill:none;stroke:#0000ff;stroke-width:0.48;stroke-linecap:round;stroke-linejoin:round;stroke-miterlimit:10;stroke-dasharray:none;stroke-opacity:1"
       transform="translate(2285.1201)" />
    <path
       id="path8904"
       d="m 922.71997,378.39999 v 5.12"
       style="fill:none;stroke:#0000ff;stroke-width:0.48;stroke-linecap:round;stroke-linejoin:round;stroke-miterlimit:10;stroke-dasharray:none;stroke-opacity:1"
       transform="translate(2285.1201)" />
    <path
       id="path8905"
       d="m 922.71997,383.51999 v 0"
       style="fill:none;stroke:#0000ff;stroke-width:0.48;stroke-linecap:round;stroke-linejoin:round;stroke-miterlimit:10;stroke-dasharray:none;stroke-opacity:1"
       transform="translate(2285.1201)" />
    <path
       id="path8906"
       d="m 922.71997,383.51999 h 5.12006"
       style="fill:none;stroke:#0000ff;stroke-width:0.48;stroke-linecap:round;stroke-linejoin:round;stroke-miterlimit:10;stroke-dasharray:none;stroke-opacity:1"
       transform="translate(2285.1201)" />
    <path
       id="path8907"
       d="m 927.84003,383.51999 v 0"
       style="fill:none;stroke:#0000ff;stroke-width:0.48;stroke-linecap:round;stroke-linejoin:round;stroke-miterlimit:10;stroke-dasharray:none;stroke-opacity:1"
       transform="translate(2285.1201)" />
    <path
       id="path8908"
       d="m 927.84003,383.51999 v -5.12"
       style="fill:none;stroke:#0000ff;stroke-width:0.48;stroke-linecap:round;stroke-linejoin:round;stroke-miterlimit:10;stroke-dasharray:none;stroke-opacity:1"
       transform="translate(2285.1201)" />
    <path
       id="path8909"
       d="m 927.84003,378.39999 v 0"
       style="fill:none;stroke:#0000ff;stroke-width:0.48;stroke-linecap:round;stroke-linejoin:round;stroke-miterlimit:10;stroke-dasharray:none;stroke-opacity:1"
       transform="translate(2285.1201)" />
    <path
       id="path8910"
       d="m 9.3194756,-66.323464 28.2507154,-4.413842 c 0.588557,18.482963 3.825618,30.896893 9.416905,37.517656 6.179845,6.620762 14.419637,9.931144 24.719377,9.931144 7.651235,0 14.419636,-1.655191 20.010923,-5.517303 6.179844,-3.586246 10.005464,-8.275953 11.771134,-14.344985 2.35422,-6.620763 3.53134,-16.551907 3.53134,-29.793433 V -235.15291 h 30.60494 v 160.001762 c 0,19.862289 -2.35423,35.310735 -7.06268,46.345339 -4.70845,10.482875 -12.35969,18.482963 -22.36515,24.2761303 -10.29974,5.7931674 -22.365149,8.8276836 -36.490507,8.8276836 -20.59948,0 -36.19623,-5.7931673 -47.084526,-17.6553669 C 13.439372,-25.771292 8.4366407,-43.42666 9.3194756,-66.323464 Z M 289.47241,-0.11583686 H 260.04458 V -183.29027 c -7.06268,6.62076 -16.18531,13.24152 -27.07361,19.86229 -11.18257,6.62076 -21.18803,11.58633 -30.60494,14.34498 v -27.58651 c 16.47959,-7.17249 30.60494,-16.55191 42.37608,-27.58651 11.77113,-11.03461 20.3052,-21.24161 25.89649,-30.89689 h 18.83381 z M 365.98476,-204.25602 v -27.58651 h 151.8476 v 22.06921 c -15.00819,16.27604 -30.01639,37.51765 -44.7303,64.0007 -14.12536,26.48305 -25.60221,53.793701 -34.13628,81.656077 -5.59129,19.310558 -9.12263,40.552172 -10.59402,64.00070614 h -29.42783 c 0,-18.20709714 3.53134,-40.27630614 10.59402,-66.20762714 7.06268,-26.483051 16.77386,-51.862646 29.42783,-76.138776 13.24252,-24.27613 27.36788,-44.69014 42.37607,-61.79378 z m 0,0"
       style="fill:#000080;fill-opacity:1;fill-rule:nonzero;stroke:none"
       aria-label="J17"
       transform="matrix(0.013274,0,0,0.01416,3197.4183,382.71648)" />
    <path
       id="path8911"
       d="M 25.79906,-0.05628273 V -235.09336 h 31.782055 v 97.10452 H 178.82377 v -97.10452 h 30.60494 V -0.05628273 H 178.82377 V -110.40233 H 57.581115 V -0.05628273 Z m 354.31106,-55.17302227 29.42783,4.413841 c -4.70845,17.103637 -13.5368,30.345163 -25.89649,39.724577 -12.65397,9.6552787 -28.83927,14.3449856 -48.26164,14.3449856 -25.30793,0 -45.31886,-7.1724929 -60.03277,-22.0692086 -14.12536,-15.448447 -21.18804,-36.965926 -21.18804,-65.104167 0,-28.689973 7.35696,-50.759183 22.36515,-66.207623 14.71392,-15.44845 34.13628,-23.17267 57.67855,-23.17267 21.77659,0 40.02184,7.72422 54.1472,23.17267 14.71392,15.44844 22.36515,37.24179 22.36515,65.104162 0,1.655191 0,4.137977 0,7.724224 H 283.58684 c 1.47139,18.482962 7.06268,32.827948 16.47958,43.034957 9.41691,9.655279 21.18804,14.344986 35.3134,14.344986 10.00546,0 18.83381,-2.482786 25.89649,-7.724223 7.65123,-5.793167 14.12536,-14.896716 18.83381,-27.586511 z m -94.16905,-46.345335 h 94.16905 c -0.88284,-13.79326 -4.41418,-24.552 -10.59402,-32.00036 -9.4169,-11.0346 -21.18804,-16.5519 -35.31339,-16.5519 -13.53681,0 -24.71938,4.41384 -34.13629,13.24152 -8.82834,8.82768 -13.5368,20.68988 -14.12535,35.31074 z m 268.67607,80.552609 c -10.29974,8.827683 -20.59948,15.1725809 -30.60494,18.7588274 -9.4169,3.5862464 -20.01092,5.5173022 -31.78205,5.5173022 -18.24526,0 -32.37061,-4.4138418 -42.37608,-13.2415254 C 439.55433,-18.81511 434.5516,-30.401445 434.5516,-45.298161 c 0,-8.000089 1.76567,-15.448447 5.88557,-22.069209 3.82562,-7.172493 8.53407,-12.689795 14.12536,-16.551907 6.17984,-4.413842 13.24252,-7.724223 21.18803,-9.931144 5.29701,-1.379326 14.12536,-2.758651 25.89649,-4.413842 22.65943,-2.758647 39.43329,-6.069037 50.61587,-9.931147 0,-3.58624 0,-6.06903 0,-7.72422 0,-11.58633 -2.35423,-19.86229 -7.06268,-24.27613 -7.94552,-6.62076 -18.83381,-9.93114 -32.95917,-9.93114 -13.5368,0 -23.54226,2.75865 -30.60494,7.72422 -6.47412,4.41384 -11.18258,12.68979 -14.12536,24.27613 l -28.25072,-3.31038 c 2.94279,-11.58634 7.35696,-21.24162 12.94825,-28.68997 5.29701,-8.00009 13.5368,-13.79326 24.71938,-17.65537 11.77113,-3.58625 24.71937,-5.5173 38.84473,-5.5173 14.71391,0 26.48505,1.93105 35.31339,5.5173 9.41691,3.03451 15.89103,7.17249 20.01093,12.13806 4.70845,5.24144 7.65123,11.8622 9.4169,19.86229 0.58856,4.41384 1.17712,13.24153 1.17712,26.48305 v 37.517658 c 0,27.310646 0.29427,44.690148 1.17711,51.862641 1.47139,6.620763 4.1199,13.2415256 8.23979,19.86228827 H 560.50271 C 557.26565,-5.8494501 555.2057,-12.746078 554.61714,-21.022031 Z m -2.35422,-64.000707 c -10.29974,4.413842 -25.89649,8.275954 -47.08453,11.034605 -11.77113,1.655191 -20.01092,3.310381 -24.71937,5.517302 -4.70846,2.206921 -8.82835,5.517303 -11.77114,9.931144 -2.35422,3.862112 -3.53134,8.275954 -3.53134,13.241526 0,7.448358 2.64851,13.793255 8.2398,18.758827 6.17984,5.241438 14.71391,7.724224 25.89649,7.724224 10.88829,0 20.59948,-2.206921 29.42782,-6.620763 8.53407,-4.965572 14.71392,-12.138065 18.83382,-20.965749 2.94278,-5.793167 4.70845,-15.448446 4.70845,-28.689971 z M 734.71546,-0.05628273 V -21.022031 c -11.18258,16.2760414 -26.77933,24.2761296 -47.08453,24.2761296 -14.12536,0 -27.0736,-3.58624644 -38.84473,-11.0346045 -11.18258,-7.1724931 -19.71665,-17.6553671 -25.89649,-30.8968931 -5.59129,-13.241525 -8.2398,-28.689971 -8.2398,-46.345339 0,-16.827772 2.64851,-32.000352 8.2398,-45.241882 5.29701,-13.79325 13.5368,-24.55199 24.71937,-32.00035 11.77113,-7.17249 24.13082,-11.0346 37.66762,-11.0346 10.00547,0 19.12809,2.20692 27.07361,6.62076 8.53407,3.86211 15.30247,9.37941 20.01092,16.55191 v -84.96646 h 29.42783 V -0.05628273 Z M 644.07774,-85.022738 c 0,22.06921 4.1199,38.621116 12.94825,49.655721 9.4169,10.482874 20.3052,15.448446 32.95917,15.448446 12.35968,0 22.9537,-4.965572 31.78205,-15.448446 8.53407,-10.207009 12.94825,-25.931321 12.94825,-47.4488 0,-22.620943 -4.70846,-39.724573 -14.12536,-50.759183 -8.82835,-11.0346 -19.42237,-16.5519 -31.78206,-16.5519 -13.5368,0 -24.42509,5.5173 -32.95916,16.5519 -7.94552,10.48288 -11.77114,26.48305 -11.77114,48.552262 z m 276.91587,29.793433 29.42783,4.413841 c -4.70845,17.103637 -13.5368,30.345163 -25.89649,39.724577 -12.65396,9.6552787 -28.83927,14.3449856 -48.26164,14.3449856 -25.30793,0 -45.31885,-7.1724929 -60.03277,-22.0692086 -14.12536,-15.448447 -21.18803,-36.965926 -21.18803,-65.104167 0,-28.689973 7.35695,-50.759183 22.36515,-66.207623 14.71391,-15.44845 34.13628,-23.17267 57.67854,-23.17267 21.77659,0 40.02185,7.72422 54.14721,23.17267 14.71391,15.44844 22.36514,37.24179 22.36514,65.104162 0,1.655191 0,4.137977 0,7.724224 H 824.47033 c 1.4714,18.482962 7.06268,32.827948 16.47959,43.034957 9.4169,9.655279 21.18804,14.344986 35.31339,14.344986 10.00546,0 18.83381,-2.482786 25.89649,-7.724223 7.65124,-5.793167 14.12536,-14.896716 18.83381,-27.586511 z m -94.16905,-46.345335 h 94.16905 c -0.88283,-13.79326 -4.41417,-24.552 -10.59402,-32.00036 -9.4169,-11.0346 -21.18803,-16.5519 -35.31339,-16.5519 -13.5368,0 -24.71938,4.41384 -34.13628,13.24152 -8.82835,8.82768 -13.5368,20.68988 -14.12536,35.31074 z M 984.55772,-0.05628273 V -169.98919 h 25.89648 v 25.37959 c 6.1799,-11.58634 12.0654,-19.31056 17.6567,-23.17267 6.1799,-3.58625 12.3597,-5.5173 18.8338,-5.5173 10.0055,0 20.0109,3.03451 29.4278,8.82768 l -9.4169,26.48305 c -7.0626,-4.41384 -14.1253,-6.62076 -21.188,-6.62076 -6.4741,0 -12.3597,2.20692 -17.6567,6.62076 -4.7084,3.86211 -7.9455,8.82768 -9.4169,15.44845 -4.1199,10.48287 -5.8856,21.51748 -5.8856,33.103811 V -0.05628273 Z M 1334.7489,-27.642794 V -0.05628273 H 1179.37 c 0,-6.62076267 1.1771,-13.24152527 3.5313,-19.86228827 3.8256,-10.207009 10.0055,-20.414018 18.8338,-30.896893 8.5341,-10.207009 21.188,-22.345074 37.6676,-36.414194 25.8965,-20.414022 42.9647,-36.690062 51.793,-48.552262 9.4169,-12.41393 14.1254,-24.27613 14.1254,-35.31073 0,-11.58634 -4.4142,-21.24162 -12.9483,-28.68997 -7.9455,-8.00009 -18.5395,-12.13807 -31.782,-12.13807 -14.1254,0 -25.6023,4.41384 -34.1363,13.24153 -7.9455,8.27595 -11.7712,19.58642 -11.7712,34.20727 l -29.4278,-3.31038 c 2.3542,-22.06921 9.7112,-38.62112 22.3652,-49.65572 13.2425,-11.58634 31.1935,-17.65537 54.1472,-17.65537 21.7766,0 39.4333,6.3449 52.9701,18.75883 13.2425,11.8622 20.0109,27.31064 20.0109,46.34534 0,8.82768 -2.06,18.2071 -5.8856,27.58651 -4.1199,8.82768 -10.594,18.48296 -20.0109,28.68997 -8.8284,9.65528 -23.248,23.17267 -43.5532,40.828037 -17.3624,14.896717 -28.8393,24.827861 -34.1363,29.793433 -4.7084,5.241437 -8.8283,10.482874 -11.7711,15.448446 z m 17.6567,27.58651127 62.387,-88.27683627 -57.6786,-81.656071 h 36.4905 l 25.8965,39.72457 c 4.7085,7.44836 8.5341,13.79326 11.7712,18.75883 4.7084,-6.62076 8.8283,-12.68979 12.9482,-18.75883 l 28.2507,-39.72457 h 34.1363 l -58.8557,79.44915 63.5642,90.48375727 h -35.3134 L 1440.6891,-53.022384 1432.4493,-67.36737 1387.719,-0.05628273 Z M 1681.9973,-27.642794 v 27.58651127 h -155.379 c 0,-6.62076267 1.1771,-13.24152527 3.5314,-19.86228827 3.8256,-10.207009 10.0054,-20.414018 18.8338,-30.896893 8.5341,-10.207009 21.188,-22.345074 37.6676,-36.414194 25.8965,-20.414022 42.9646,-36.690062 51.793,-48.552262 9.4169,-12.41393 14.1253,-24.27613 14.1253,-35.31073 0,-11.58634 -4.4141,-21.24162 -12.9482,-28.68997 -7.9455,-8.00009 -18.5395,-12.13807 -31.7821,-12.13807 -14.1253,0 -25.6022,4.41384 -34.1362,13.24153 -7.9456,8.27595 -11.7712,19.58642 -11.7712,34.20727 l -29.4278,-3.31038 c 2.3542,-22.06921 9.7112,-38.62112 22.3651,-49.65572 13.2426,-11.58634 31.1935,-17.65537 54.1473,-17.65537 21.7765,0 39.4332,6.3449 52.97,18.75883 13.2426,11.8622 20.011,27.31064 20.011,46.34534 0,8.82768 -2.06,18.2071 -5.8856,27.58651 -4.1199,8.82768 -10.594,18.48296 -20.0109,28.68997 -8.8284,9.65528 -23.248,23.17267 -43.5532,40.828037 -17.3624,14.896717 -28.8393,24.827861 -34.1363,29.793433 -4.7084,5.241437 -8.8283,10.482874 -11.7711,15.448446 z m 278.3872,0 v 27.58651127 h -155.3789 c 0,-6.62076267 1.1771,-13.24152527 3.5313,-19.86228827 3.8256,-10.207009 10.0055,-20.414018 18.8338,-30.896893 8.5341,-10.207009 21.1881,-22.345074 37.6677,-36.414194 25.8965,-20.414022 42.9646,-36.690062 51.7929,-48.552262 9.4169,-12.41393 14.1254,-24.27613 14.1254,-35.31073 0,-11.58634 -4.4142,-21.24162 -12.9482,-28.68997 -7.9456,-8.00009 -18.5396,-12.13807 -31.7821,-12.13807 -14.1254,0 -25.6022,4.41384 -34.1363,13.24153 -7.9455,8.27595 -11.7711,19.58642 -11.7711,34.20727 l -29.4278,-3.31038 c 2.3542,-22.06921 9.7111,-38.62112 22.3651,-49.65572 13.2425,-11.58634 31.1935,-17.65537 54.1472,-17.65537 21.7766,0 39.4333,6.3449 52.9701,18.75883 13.2425,11.8622 20.0109,27.31064 20.0109,46.34534 0,8.82768 -2.0599,18.2071 -5.8855,27.58651 -4.1199,8.82768 -10.5941,18.48296 -20.011,28.68997 -8.8283,9.65528 -23.2479,23.17267 -43.5531,40.828037 -17.3625,14.896717 -28.8393,24.827861 -34.1363,29.793433 -4.7085,5.241437 -8.8284,10.482874 -11.7712,15.448446 z m 45.0246,27.58651127 V -33.160096 h 32.9592 v 33.10381327 z m 82.9865,-61.79378527 29.4278,-2.206921 c 2.3542,14.896716 7.357,25.931321 15.3025,33.103814 8.5341,7.448358 18.2452,11.034604 29.4278,11.034604 14.1254,0 25.8965,-4.965572 35.3134,-15.448446 10.0055,-10.207009 15.3025,-24.27613 15.3025,-41.931497 0,-16.000177 -4.7085,-28.965836 -14.1254,-38.621116 -9.4169,-9.37941 -21.7766,-14.34499 -36.4905,-14.34499 -9.4169,0 -18.2452,2.20692 -25.8965,6.62077 -7.0627,4.41384 -12.6539,9.93114 -16.4796,16.5519 l -27.0736,-3.31038 22.3652,-121.38065 h 116.5342 v 27.58651 h -92.992 l -12.9482,62.89725 c 14.1254,-9.37941 28.8393,-14.34499 44.7303,-14.34499 20.3052,0 37.0791,7.44836 50.6159,22.06921 14.1253,14.06912 21.188,32.00036 21.188,54.069565 0,21.517479 -5.8856,39.724576 -17.6567,55.173022 -15.0082,19.3105582 -35.9019,28.6899721 -62.387,28.6899721 -21.188,0 -38.5504,-5.7931674 -51.793,-17.6553671 -13.5368,-12.41393 -20.8937,-28.689972 -22.3651,-48.55226 z m 271.9131,61.79378527 V -56.332766 H 2259.077 v -26.483051 l 105.9402,-152.277543 h 23.5422 v 152.277543 h 31.7821 v 26.483051 h -31.7821 v 56.27648327 z m 0,-82.75953427 V -188.74802 l -72.981,105.932203 z m 95.6405,82.75953427 V -169.98919 h 25.8965 v 24.27613 c 5.297,-8.82769 12.3596,-15.44845 21.188,-19.86229 9.4169,-4.96557 19.4224,-7.72422 30.6049,-7.72422 12.3597,0 22.6595,2.75865 30.605,7.72422 7.6512,5.24144 13.5368,12.13806 17.6567,20.96575 13.2425,-19.03469 30.6049,-28.68997 51.793,-28.68997 17.0681,0 30.0163,4.96557 38.8447,14.34498 9.4169,8.82769 14.1253,22.89681 14.1253,41.9315 V -0.05628273 h -29.4278 V -107.09195 c 0,-11.58633 -0.8828,-19.86228 -2.3542,-24.27613 -1.7657,-4.96557 -5.297,-9.10355 -10.594,-12.13806 -4.7085,-3.58625 -10.2998,-5.5173 -16.4796,-5.5173 -11.7711,0 -22.0709,4.13797 -30.605,12.13806 -7.9455,8.27595 -11.7711,20.96575 -11.7711,38.621117 v 98.20798027 h -28.2507 V -110.40233 c 0,-12.41393 -2.3542,-22.06921 -7.0627,-28.68997 -4.7084,-6.62076 -12.6539,-9.93114 -23.5422,-9.93114 -7.9456,0 -15.3025,2.20692 -22.3652,6.62076 -6.4741,4.41384 -11.1826,10.75874 -14.1254,18.75883 -3.237,8.27595 -4.7084,19.86228 -4.7084,35.310731 v 88.27683627 z m 278.3872,0 V -169.98919 h 25.8965 v 24.27613 c 5.297,-8.82769 12.3597,-15.44845 21.1881,-19.86229 9.4169,-4.96557 19.4223,-7.72422 30.6049,-7.72422 12.3597,0 22.6594,2.75865 30.6049,7.72422 7.6513,5.24144 13.5368,12.13806 17.6567,20.96575 13.2426,-19.03469 30.605,-28.68997 51.793,-28.68997 17.0682,0 30.0164,4.96557 38.8447,14.34498 9.417,8.82769 14.1254,22.89681 14.1254,41.9315 V -0.05628273 h -29.4278 V -107.09195 c 0,-11.58633 -0.8829,-19.86228 -2.3543,-24.27613 -1.7656,-4.96557 -5.297,-9.10355 -10.594,-12.13806 -4.7084,-3.58625 -10.2997,-5.5173 -16.4796,-5.5173 -11.7711,0 -22.0708,4.13797 -30.6049,12.13806 -7.9455,8.27595 -11.7711,20.96575 -11.7711,38.621117 v 98.20798027 h -28.2507 V -110.40233 c 0,-12.41393 -2.3543,-22.06921 -7.0627,-28.68997 -4.7085,-6.62076 -12.654,-9.93114 -23.5423,-9.93114 -7.9455,0 -15.3025,2.20692 -22.3651,6.62076 -6.4742,4.41384 -11.1826,10.75874 -14.1254,18.75883 -3.2371,8.27595 -4.7084,19.86228 -4.7084,35.310731 v 88.27683627 z m 0,0"
       style="fill:#000080;fill-opacity:1;fill-rule:nonzero;stroke:none"
       aria-label="Header 2x2 2.54mm"
       transform="matrix(0.013274,0,0,0.01416,3197.4183,387.83673)" />
    <path
       id="path8912"
       d="M 21.090607,0.11256804 V -234.92451 h 29.427829 v 84.96646 c 13.242523,-15.44845 30.016385,-23.17267 50.615864,-23.17267 12.35969,0 23.54226,2.75865 32.95917,7.72422 9.41691,4.41384 15.89103,11.0346 20.01092,19.86229 3.82562,8.82768 5.88557,21.51748 5.88557,37.51765 V 0.11256804 H 130.56213 V -108.02656 c 0,-13.79325 -3.23706,-24.27613 -9.4169,-30.89689 -6.47413,-6.62076 -15.0082,-9.93114 -25.896494,-9.93114 -8.828349,0 -17.068141,2.20692 -24.719376,6.62076 -7.062679,4.41384 -12.359689,10.75874 -15.302471,18.75883 -3.237062,7.44836 -4.708453,17.65536 -4.708453,30.89689 V 0.11256804 Z M 318.0174,-55.060455 l 29.42783,4.413842 c -4.70845,17.103637 -13.5368,30.345163 -25.89649,39.724577 -12.65397,9.6552785 -28.83927,14.3449854 -48.26164,14.3449854 -25.30793,0 -45.31886,-7.1724929 -60.03277,-22.0692094 -14.12536,-15.448446 -21.18804,-36.965925 -21.18804,-65.104166 0,-28.689974 7.35696,-50.759184 22.36515,-66.207624 14.71392,-15.44845 34.13628,-23.17267 57.67855,-23.17267 21.77659,0 40.02184,7.72422 54.1472,23.17267 14.71392,15.44844 22.36515,37.24179 22.36515,65.104163 0,1.655191 0,4.137977 0,7.724223 H 221.49412 c 1.47139,18.482963 7.06268,32.827949 16.47959,43.034958 9.4169,9.655279 21.18803,14.344986 35.31339,14.344986 10.00546,0 18.83381,-2.482786 25.89649,-7.724223 7.65124,-5.793168 14.12536,-14.896716 18.83381,-27.586512 z m -94.16905,-46.345335 h 94.16905 c -0.88283,-13.79326 -4.41417,-24.552 -10.59402,-32.00036 -9.4169,-11.0346 -21.18804,-16.5519 -35.31339,-16.5519 -13.5368,0 -24.71938,4.41384 -34.13628,13.24152 -8.82835,8.82769 -13.53681,20.68989 -14.12536,35.31074 z m 268.3818,80.552609 c -10.29974,8.827684 -20.59948,15.1725817 -30.60495,18.7588281 -9.4169,3.5862465 -20.01092,5.5173023 -31.78205,5.5173023 -18.24525,0 -32.37061,-4.41384181 -42.37607,-13.2415254 -10.29974,-8.827684 -15.30247,-20.414018 -15.30247,-35.310734 0,-8.000089 1.76566,-15.448447 5.88556,-22.06921 3.82562,-7.172492 8.53407,-12.689795 14.12536,-16.551906 6.17984,-4.413842 13.24252,-7.724223 21.18804,-9.931144 5.297,-1.379326 14.12535,-2.758652 25.89648,-4.413842 22.65943,-2.758648 39.4333,-6.069028 50.61587,-9.931148 0,-3.58624 0,-6.06903 0,-7.72422 0,-11.58633 -2.35423,-19.86229 -7.06268,-24.27613 -7.94551,-6.62076 -18.83381,-9.93114 -32.95917,-9.93114 -13.5368,0 -23.54226,2.75865 -30.60494,7.72422 -6.47412,4.41384 -11.18257,12.68979 -14.12536,24.27613 l -28.25071,-3.31038 c 2.94278,-11.58634 7.35695,-21.24162 12.94824,-28.68997 5.29701,-8.00009 13.5368,-13.79326 24.71938,-17.65537 11.77113,-3.58625 24.71937,-5.5173 38.84473,-5.5173 14.71392,0 26.48505,1.93105 35.3134,5.5173 9.4169,3.03452 15.89102,7.17249 20.01092,12.13806 4.70845,5.24144 7.65124,11.8622 9.41691,19.86229 0.58855,4.41384 1.17711,13.24153 1.17711,26.48305 v 37.517659 c 0,27.310646 0.29428,44.690148 1.17711,51.862641 1.47139,6.620763 4.1199,13.2415253 8.23979,19.86228804 H 498.11571 C 494.87865,-5.6805993 492.8187,-12.577227 492.23015,-20.853181 Z m -2.35423,-64.000706 c -10.29974,4.413842 -25.89649,8.275954 -47.08453,11.034605 -11.77113,1.65519 -20.01092,3.310381 -24.71937,5.517302 -4.70845,2.206921 -8.82835,5.517302 -11.77113,9.931144 -2.35423,3.862112 -3.53134,8.275953 -3.53134,13.241526 0,7.448358 2.6485,13.793255 8.23979,18.758827 6.17984,5.241437 14.71391,7.724223 25.89649,7.724223 10.8883,0 20.59948,-2.206921 29.42783,-6.620762 8.53407,-4.965572 14.71391,-12.138065 18.83381,-20.965749 2.94278,-5.793167 4.70845,-15.448446 4.70845,-28.689972 z M 675.8598,0.11256804 V -20.853181 c -11.18258,16.2760421 -26.77933,24.2761304 -47.08453,24.2761304 -14.12536,0 -27.0736,-3.58624647 -38.84473,-11.0346045 -11.18258,-7.1724929 -19.71665,-17.6553669 -25.89649,-30.8968929 -5.59129,-13.241525 -8.23979,-28.689972 -8.23979,-46.345339 0,-16.827773 2.6485,-32.000353 8.23979,-45.241883 5.29701,-13.79325 13.5368,-24.55199 24.71938,-32.00035 11.77113,-7.17249 24.13082,-11.0346 37.66762,-11.0346 10.00546,0 19.12809,2.20692 27.0736,6.62076 8.53407,3.86211 15.30247,9.37941 20.01092,16.55191 v -84.96646 H 702.9334 V 0.11256804 Z M 585.22209,-84.853887 c 0,22.069209 4.11989,38.621116 12.94824,49.655721 9.41691,10.482874 20.3052,15.448446 32.95917,15.448446 12.35969,0 22.95371,-4.965572 31.78205,-15.448446 8.53407,-10.20701 12.94825,-25.931321 12.94825,-47.4488 0,-22.620944 -4.70845,-39.724574 -14.12536,-50.759184 -8.82835,-11.0346 -19.42237,-16.5519 -31.78205,-16.5519 -13.53681,0 -24.4251,5.5173 -32.95917,16.5519 -7.94552,10.48288 -11.77113,26.48305 -11.77113,48.552263 z m 276.62159,29.793432 29.42783,4.413842 c -4.70846,17.103637 -13.53681,30.345163 -25.89649,39.724577 -12.65397,9.6552785 -28.83928,14.3449854 -48.26164,14.3449854 -25.30794,0 -45.31886,-7.1724929 -60.03277,-22.0692094 -14.12536,-15.448446 -21.18804,-36.965925 -21.18804,-65.104166 0,-28.689974 7.35696,-50.759184 22.36515,-66.207624 14.71391,-15.44845 34.13628,-23.17267 57.67854,-23.17267 21.7766,0 40.02185,7.72422 54.14721,23.17267 14.71391,15.44844 22.36515,37.24179 22.36515,65.104163 0,1.655191 0,4.137977 0,7.724223 H 765.3204 c 1.47139,18.482963 7.06268,32.827949 16.47958,43.034958 9.41691,9.655279 21.18804,14.344986 35.3134,14.344986 10.00546,0 18.83381,-2.482786 25.89649,-7.724223 7.65123,-5.793168 14.12535,-14.896716 18.83381,-27.586512 z m -94.16906,-46.345335 h 94.16906 c -0.88284,-13.79326 -4.41418,-24.552 -10.59402,-32.00036 -9.41691,-11.0346 -21.18804,-16.5519 -35.3134,-16.5519 -13.5368,0 -24.71937,4.41384 -34.13628,13.24152 -8.82835,8.82769 -13.5368,20.68989 -14.12536,35.31074 z M 925.70207,0.11256804 V -169.82034 h 25.89648 v 25.37959 c 6.17985,-11.58634 12.06541,-19.31056 17.6567,-23.17267 6.17985,-3.58625 12.35969,-5.5173 18.83381,-5.5173 10.00546,0 20.01094,3.03451 29.42784,8.82768 l -9.4169,26.48305 c -7.0627,-4.41384 -14.12537,-6.62076 -21.18805,-6.62076 -6.47412,0 -12.35969,2.20692 -17.6567,6.62076 -4.70845,3.86211 -7.94551,8.82769 -9.4169,15.44845 -4.1199,10.48287 -5.88557,21.51748 -5.88557,33.103811 V 0.11256804 Z M 1177.31,-27.473943 V 0.11256804 h -155.3789 c 0,-6.62076274 1.1771,-13.24152504 3.5313,-19.86228804 3.8256,-10.207009 10.0055,-20.414018 18.8338,-30.896893 8.5341,-10.207009 21.1881,-22.345074 37.6676,-36.414195 25.8965,-20.414022 42.9647,-36.690062 51.793,-48.552262 9.4169,-12.41393 14.1254,-24.27613 14.1254,-35.31073 0,-11.58634 -4.4142,-21.24162 -12.9483,-28.68997 -7.9455,-8.00009 -18.5395,-12.13807 -31.782,-12.13807 -14.1254,0 -25.6022,4.41384 -34.1363,13.24153 -7.9455,8.27595 -11.7711,19.58642 -11.7711,34.20727 l -29.4279,-3.31038 c 2.3543,-22.06921 9.7112,-38.62112 22.3652,-49.65572 13.2425,-11.58634 31.1935,-17.65537 54.1472,-17.65537 21.7766,0 39.4333,6.3449 52.9701,18.75883 13.2425,11.8622 20.0109,27.31065 20.0109,46.34534 0,8.82768 -2.0599,18.2071 -5.8856,27.58651 -4.1199,8.82768 -10.594,18.48296 -20.0109,28.68997 -8.8283,9.65528 -23.248,23.172671 -43.5532,40.828038 -17.3624,14.896716 -28.8392,24.82786 -34.1363,29.793432 -4.7084,5.241438 -8.8283,10.482875 -11.7711,15.448447 z m 17.6567,27.58651104 62.387,-88.27683604 -57.6785,-81.656072 h 36.4905 l 25.8964,39.72457 c 4.7085,7.44836 8.5341,13.79326 11.7712,18.75883 4.7084,-6.62076 8.8283,-12.68979 12.9482,-18.75883 l 28.2507,-39.72457 h 34.1363 l -58.8556,79.449151 63.5641,90.48375704 h -35.3134 L 1283.2502,-52.853534 1275.0104,-67.19852 1230.2801,0.11256804 Z M 1528.0897,-27.473943 V 0.11256804 h -155.3789 c 0,-6.62076274 1.1771,-13.24152504 3.5313,-19.86228804 3.8256,-10.207009 10.0055,-20.414018 18.8338,-30.896893 8.5341,-10.207009 21.1881,-22.345074 37.6677,-36.414195 25.8964,-20.414022 42.9646,-36.690062 51.7929,-48.552262 9.4169,-12.41393 14.1254,-24.27613 14.1254,-35.31073 0,-11.58634 -4.4142,-21.24162 -12.9483,-28.68997 -7.9455,-8.00009 -18.5395,-12.13807 -31.782,-12.13807 -14.1254,0 -25.6022,4.41384 -34.1363,13.24153 -7.9455,8.27595 -11.7711,19.58642 -11.7711,34.20727 l -29.4278,-3.31038 c 2.3542,-22.06921 9.7111,-38.62112 22.3651,-49.65572 13.2425,-11.58634 31.1935,-17.65537 54.1472,-17.65537 21.7766,0 39.4333,6.3449 52.9701,18.75883 13.2425,11.8622 20.0109,27.31065 20.0109,46.34534 0,8.82768 -2.0599,18.2071 -5.8855,27.58651 -4.1199,8.82768 -10.5941,18.48296 -20.011,28.68997 -8.8283,9.65528 -23.248,23.172671 -43.5532,40.828038 -17.3624,14.896716 -28.8392,24.82786 -34.1362,29.793432 -4.7085,5.241438 -8.8284,10.482875 -11.7712,15.448447 z m 10.594,92.690678 V 44.250986 h 190.6924 v 20.965749 z m 349.6026,-92.690678 V 0.11256804 h -155.3789 c 0,-6.62076274 1.1771,-13.24152504 3.5314,-19.86228804 3.8256,-10.207009 10.0054,-20.414018 18.8338,-30.896893 8.534,-10.207009 21.188,-22.345074 37.6676,-36.414195 25.8965,-20.414022 42.9646,-36.690062 51.793,-48.552262 9.4169,-12.41393 14.1253,-24.27613 14.1253,-35.31073 0,-11.58634 -4.4142,-21.24162 -12.9482,-28.68997 -7.9455,-8.00009 -18.5396,-12.13807 -31.7821,-12.13807 -14.1253,0 -25.6022,4.41384 -34.1363,13.24153 -7.9455,8.27595 -11.7711,19.58642 -11.7711,34.20727 l -29.4278,-3.31038 c 2.3542,-22.06921 9.7112,-38.62112 22.3651,-49.65572 13.2425,-11.58634 31.1935,-17.65537 54.1472,-17.65537 21.7766,0 39.4333,6.3449 52.9701,18.75883 13.2425,11.8622 20.0109,27.31065 20.0109,46.34534 0,8.82768 -2.0599,18.2071 -5.8855,27.58651 -4.1199,8.82768 -10.594,18.48296 -20.0109,28.68997 -8.8284,9.65528 -23.248,23.172671 -43.5532,40.828038 -17.3624,14.896716 -28.8393,24.82786 -34.1363,29.793432 -4.7085,5.241438 -8.8284,10.482875 -11.7711,15.448447 z m 10.8883,92.690678 V 44.250986 h 190.6924 v 20.965749 z m 198.9322,-126.897952 29.4278,-2.206921 c 2.3542,14.896716 7.357,25.93132 15.3025,33.103813 8.534,7.448358 18.2452,11.034605 29.4278,11.034605 14.1254,0 25.8965,-4.965572 35.3134,-15.448446 10.0055,-10.20701 15.3025,-24.27613 15.3025,-41.931498 0,-16.000176 -4.7085,-28.965836 -14.1254,-38.621116 -9.4169,-9.37941 -21.7766,-14.34499 -36.4905,-14.34499 -9.4169,0 -18.2453,2.20693 -25.8965,6.62077 -7.0627,4.41384 -12.654,9.93114 -16.4796,16.5519 l -27.0736,-3.31038 22.3652,-121.38065 h 116.5342 v 27.58651 h -92.992 l -12.9482,62.89725 c 14.1253,-9.37941 28.8393,-14.34499 44.7303,-14.34499 20.3052,0 37.0791,7.44836 50.6159,22.06921 14.1253,14.06912 21.188,32.00036 21.188,54.069565 0,21.517479 -5.8856,39.724577 -17.6567,55.173023 -15.0082,19.310558 -35.902,28.6899718 -62.387,28.6899718 -21.188,0 -38.5505,-5.7931673 -51.793,-17.6553668 -13.5368,-12.41393 -20.8937,-28.689972 -22.3651,-48.55226 z M 2373.5512,0.11256804 V -56.163915 h -101.2317 v -26.483051 l 105.9402,-152.277544 h 23.5423 v 152.277544 h 31.782 v 26.483051 h -31.782 V 0.11256804 Z m 0,-82.75953404 V -188.57917 l -72.981,105.932204 z m 0,0"
       style="fill:#800000;fill-opacity:1;fill-rule:nonzero;stroke:none"
       aria-label="header2x2_2_54"
       transform="matrix(0.013274,0,0,0.01416,3197.4183,393.11559)" />
    <path
       id="path8913"
       d="M 912.32001,357.60001 H 896.79999"
       style="fill:none;stroke:#ff0000;stroke-width:0.48;stroke-linecap:round;stroke-linejoin:round;stroke-miterlimit:10;stroke-dasharray:none;stroke-opacity:1"
       transform="translate(2285.1201)" />
    <path
       id="path8914"
       d="m 896.79999,357.60001 v 0"
       style="fill:none;stroke:#ff0000;stroke-width:0.48;stroke-linecap:round;stroke-linejoin:round;stroke-miterlimit:10;stroke-dasharray:none;stroke-opacity:1"
       transform="translate(2285.1201)" />
    <path
       id="path8915"
       d="M 122.83253,-0.05702267 H 93.494903 V -183.23146 c -7.334405,6.62077 -16.841968,13.24153 -28.251043,19.86229 -10.865785,6.62076 -20.644993,11.58634 -29.337621,14.34499 v -27.58651 c 15.755389,-7.1725 29.609266,-16.55191 41.289986,-27.58652 12.224009,-11.0346 20.916637,-21.24161 26.077885,-30.89689 h 19.55842 z m 0,0"
       style="fill:#004080;fill-opacity:1;fill-rule:nonzero;stroke:none"
       aria-label="1"
       transform="matrix(0.01438,0,0,0.01416,3199.9671,359.83674)" />
    <path
       id="path8916"
       d="M 122.81714,-0.00219185 H 93.479517 V -183.17663 c -7.334405,6.62077 -16.841968,13.24153 -28.251043,19.86229 -10.865785,6.62076 -20.644993,11.58634 -29.337621,14.34499 v -27.58651 c 15.755389,-7.1725 29.609266,-16.55191 41.289986,-27.58652 12.224009,-11.0346 20.916637,-21.24161 26.077881,-30.89689 h 19.55842 z m 0,0"
       style="fill:#000000;fill-opacity:1;fill-rule:nonzero;stroke:none"
       aria-label="1"
       transform="matrix(0.01438,0,0,0.01416,3191.1665,356.47659)" />
    <path
       id="path8917"
       d="m 938.23999,357.60001 h 15.52002"
       style="fill:none;stroke:#ff0000;stroke-width:0.48;stroke-linecap:round;stroke-linejoin:round;stroke-miterlimit:10;stroke-dasharray:none;stroke-opacity:1"
       transform="translate(2285.1201)" />
    <path
       id="path8918"
       d="m 953.76001,357.60001 v 0"
       style="fill:none;stroke:#ff0000;stroke-width:0.48;stroke-linecap:round;stroke-linejoin:round;stroke-miterlimit:10;stroke-dasharray:none;stroke-opacity:1"
       transform="translate(2285.1201)" />
    <path
       id="path8919"
       d="M 165.21716,-27.643534 V -0.05702267 H 9.8364208 c 0,-6.62076273 1.0865782,-13.24152533 3.2597362,-19.86228833 4.346314,-10.207009 10.865785,-20.414018 19.558414,-30.896892 8.692629,-10.20701 20.916638,-22.345075 36.943672,-36.414195 26.077886,-20.414022 43.463147,-36.690062 52.155767,-48.552262 8.69263,-12.41393 13.03895,-24.27613 13.03895,-35.31073 0,-11.58634 -4.07467,-21.24162 -11.95237,-28.68997 -8.14934,-8.00009 -18.47183,-12.13807 -31.510776,-12.13807 -13.853877,0 -24.991307,4.41384 -33.683936,13.24153 -8.149339,8.27595 -12.495653,19.58642 -13.038943,34.20727 l -29.337621,-3.31038 c 2.173157,-22.06921 9.779207,-38.62112 22.81815,-49.65572 13.582232,-11.58634 31.510779,-17.65537 53.24235,-17.65537 22.274866,0 40.203406,6.3449 53.242346,18.75883 13.58224,11.8622 20.645,27.31064 20.645,46.34534 0,8.82768 -2.17316,18.2071 -6.51947,27.58651 -3.80303,8.82768 -10.3225,18.48296 -19.55842,28.68997 -8.69263,9.65528 -23.36144,23.17267 -43.463141,40.828037 -17.385258,14.896717 -28.794333,24.827861 -33.683936,29.793433 -5.161249,5.241437 -9.235918,10.482874 -11.952365,15.448446 z m 0,0"
       style="fill:#004080;fill-opacity:1;fill-rule:nonzero;stroke:none"
       aria-label="2"
       transform="matrix(0.01438,0,0,0.01416,3218.2052,359.83674)" />
    <path
       id="path8920"
       d="M 165.23254,-27.588703 V -0.00219185 H 9.8518067 c 0,-6.62076275 1.0865783,-13.24152515 3.2597353,-19.86228815 4.346315,-10.207009 10.865786,-20.414018 19.558415,-30.896893 8.692629,-10.207009 20.916638,-22.345074 36.943672,-36.414195 26.077886,-20.414022 43.463141,-36.690062 52.155771,-48.552262 8.69263,-12.41393 13.03894,-24.27613 13.03894,-35.31073 0,-11.58634 -4.07467,-21.24162 -11.95236,-28.68997 -8.14934,-8.00009 -18.47184,-12.13807 -31.51078,-12.13807 -13.853877,0 -24.991307,4.41384 -33.683936,13.24153 -8.149339,8.27595 -12.495653,19.58642 -13.038943,34.20727 L 15.2847,-167.72818 c 2.173157,-22.06921 9.779207,-38.62112 22.81815,-49.65572 13.582232,-11.58634 31.510779,-17.65537 53.24235,-17.65537 22.27486,0 40.20341,6.3449 53.24235,18.75883 13.58223,11.8622 20.64499,27.31065 20.64499,46.34534 0,8.82768 -2.17315,18.2071 -6.51947,27.58651 -3.80302,8.82768 -10.32249,18.48296 -19.55841,28.68997 -8.69263,9.65528 -23.36144,23.172671 -43.463145,40.828038 -17.385258,14.896716 -28.794333,24.82786 -33.683936,29.793433 -5.161249,5.241437 -9.235918,10.482874 -11.952365,15.448446 z m 0,0"
       style="fill:#000000;fill-opacity:1;fill-rule:nonzero;stroke:none"
       aria-label="2"
       transform="matrix(0.01438,0,0,0.01416,3227.0058,356.47659)" />
    <path
       id="path8921"
       d="M 912.32001,373.12 H 896.79999"
       style="fill:none;stroke:#ff0000;stroke-width:0.48;stroke-linecap:round;stroke-linejoin:round;stroke-miterlimit:10;stroke-dasharray:none;stroke-opacity:1"
       transform="translate(2285.1201)" />
    <path
       id="path8922"
       d="m 896.79999,373.12 v 0"
       style="fill:none;stroke:#ff0000;stroke-width:0.48;stroke-linecap:round;stroke-linejoin:round;stroke-miterlimit:10;stroke-dasharray:none;stroke-opacity:1"
       transform="translate(2285.1201)" />
    <path
       id="path8923"
       d="m 14.174667,-61.838714 28.251043,-4.413842 c 3.531381,17.103637 9.235918,29.241702 17.385257,36.414195 7.877695,6.620763 17.656902,9.931144 29.337622,9.931144 13.038941,0 24.176371,-4.413842 33.683941,-13.241525 9.23591,-9.379414 14.12552,-21.241614 14.12552,-35.310735 0,-13.241525 -4.34632,-24.27613 -13.03895,-33.103813 -8.69262,-8.82768 -19.55841,-13.24153 -32.597354,-13.24153 -5.976182,0 -12.767298,1.10346 -20.644993,3.31039 l 3.259736,-25.37959 c 2.173157,0.82759 3.53138,1.10346 4.346314,1.10346 12.224009,0 23.089797,-3.31039 32.597357,-9.93115 10.05085,-6.62076 15.2121,-16.55191 15.2121,-29.79343 0,-10.20701 -3.80302,-18.75883 -10.86578,-25.37959 -6.51948,-7.17249 -15.755394,-11.03461 -27.164469,-11.03461 -11.68072,0 -21.188283,3.86212 -28.251044,11.03461 -7.334405,6.62076 -11.952364,17.10364 -14.125521,30.89689 l -29.337622,-4.41384 c 3.531381,-19.86229 11.409075,-34.759 23.904729,-45.24188 13.038943,-10.20701 28.522688,-15.44845 46.722879,-15.44845 13.038938,0 24.991308,2.75866 35.857098,7.72423 10.86578,5.24144 19.01512,12.68979 24.9913,22.06921 5.70454,9.65528 8.69263,19.86229 8.69263,30.89689 0,10.48287 -2.98809,19.58642 -8.69263,27.58651 -5.16125,8.27595 -13.03894,14.89672 -23.90473,19.86229 13.58224,3.03452 24.17638,9.65528 31.51078,19.86229 7.8777,10.482872 11.95237,22.896802 11.95237,37.517653 0,20.689883 -7.60605,38.34525 -22.81815,52.966101 -14.66881,14.0691212 -33.41229,20.9657491 -56.502089,20.9657491 -20.373349,0 -37.486962,-6.0690325 -51.069194,-18.7588281 C 23.13894,-26.803845 15.53289,-42.528156 14.174667,-61.838714 Z m 0,0"
       style="fill:#004080;fill-opacity:1;fill-rule:nonzero;stroke:none"
       aria-label="3"
       transform="matrix(0.01438,0,0,0.01416,3199.9671,375.3561)" />
    <path
       id="path8924"
       d="m 14.159281,-61.783883 28.251043,-4.413842 c 3.531381,17.103637 9.235918,29.241702 17.385257,36.414195 7.877695,6.620763 17.656902,9.931144 29.337622,9.931144 13.038947,0 24.176377,-4.413842 33.683937,-13.241525 9.23592,-9.379414 14.12552,-21.241614 14.12552,-35.310735 0,-13.241525 -4.34631,-24.27613 -13.03894,-33.103814 -8.69263,-8.82768 -19.55842,-13.24152 -32.59736,-13.24152 -5.976182,0 -12.767298,1.10346 -20.644993,3.31038 l 3.259736,-25.37959 c 2.173157,0.82759 3.53138,1.10346 4.346314,1.10346 12.224009,0 23.089793,-3.31038 32.597353,-9.93115 10.05086,-6.62076 15.2121,-16.5519 15.2121,-29.79343 0,-10.20701 -3.80302,-18.75883 -10.86578,-25.37959 -6.51947,-7.17249 -15.75539,-11.0346 -27.164465,-11.0346 -11.68072,0 -21.188283,3.86211 -28.251044,11.0346 -7.334405,6.62076 -11.952364,17.10364 -14.125521,30.89689 l -29.337622,-4.41384 c 3.531381,-19.86229 11.409075,-34.759 23.904729,-45.24188 13.038943,-10.20701 28.522688,-15.44844 46.722879,-15.44844 13.038943,0 24.991304,2.75865 35.857094,7.72422 10.86579,5.24144 19.01512,12.68979 24.99131,22.06921 5.70453,9.65528 8.69263,19.86229 8.69263,30.89689 0,10.48287 -2.9881,19.58642 -8.69263,27.58651 -5.16125,8.27596 -13.03895,14.89672 -23.90473,19.86229 13.58223,3.03452 24.17637,9.65528 31.51078,19.86229 7.87769,10.482873 11.95236,22.896803 11.95236,37.517654 0,20.689883 -7.60605,38.34525 -22.81815,52.966101 -14.66881,14.0691211 -33.41229,20.9657489 -56.502085,20.9657489 -20.373349,0 -37.486961,-6.0690325 -51.069194,-18.7588279 -13.853877,-12.41393 -21.459927,-28.138241 -22.81815,-47.448799 z m 0,0"
       style="fill:#000000;fill-opacity:1;fill-rule:nonzero;stroke:none"
       aria-label="3"
       transform="matrix(0.01438,0,0,0.01416,3191.1665,371.99595)" />
    <path
       id="path8925"
       d="m 938.23999,373.12 h 15.52002"
       style="fill:none;stroke:#ff0000;stroke-width:0.48;stroke-linecap:round;stroke-linejoin:round;stroke-miterlimit:10;stroke-dasharray:none;stroke-opacity:1"
       transform="translate(2285.1201)" />
    <path
       id="path8926"
       d="m 953.76001,373.12 v 0"
       style="fill:none;stroke:#ff0000;stroke-width:0.48;stroke-linecap:round;stroke-linejoin:round;stroke-miterlimit:10;stroke-dasharray:none;stroke-opacity:1"
       transform="translate(2285.1201)" />
    <path
       id="path8927"
       d="M 106.54191,-0.04492875 V -56.321412 H 4.4035279 V -82.804463 L 110.88823,-235.08201 h 23.90473 v 152.277547 h 31.51078 v 26.483051 h -31.51078 v 56.27648325 z m 0,-82.75953425 V -188.73667 L 32.654571,-82.804463 Z m 0,0"
       style="fill:#004080;fill-opacity:1;fill-rule:nonzero;stroke:none"
       aria-label="4"
       transform="matrix(0.01438,0,0,0.01416,3218.2052,375.3561)" />
    <path
       id="path8928"
       d="M 106.5573,0.00990208 V -56.266581 H 4.4189138 V -82.749632 L 110.90361,-235.02717 h 23.90473 v 152.277538 h 31.51078 v 26.483051 H 134.80834 V 0.00990208 Z m 0,-82.75953408 V -188.68184 L 32.669957,-82.749632 Z m 0,0"
       style="fill:#000000;fill-opacity:1;fill-rule:nonzero;stroke:none"
       aria-label="4"
       transform="matrix(0.01438,0,0,0.01416,3227.0058,371.99595)" />
    <path
       id="path10006"
       d="M 896.79999,357.60001 H 865.59998"
       style="fill:none;stroke:#800040;stroke-width:0.48;stroke-linecap:round;stroke-linejoin:round;stroke-miterlimit:10;stroke-dasharray:none;stroke-opacity:1"
       transform="translate(2285.1201)" />
    <path
       id="path10007"
       d="m 865.59998,357.60001 v 0"
       style="fill:none;stroke:#800040;stroke-width:0.48;stroke-linecap:round;stroke-linejoin:round;stroke-miterlimit:10;stroke-dasharray:none;stroke-opacity:1"
       transform="translate(2285.1201)" />
    <path
       id="path10008"
       d="M 84.650377,0.05671162 V -207.39385 H 8.1380219 v -27.58651 H 192.94479 v 27.58651 H 115.25532 V 0.05671162 Z m 147.727703,0 V -234.98036 h 103.58596 c 21.18803,0 36.78478,2.20692 47.08452,6.62076 10.8883,4.41384 19.42237,12.13806 25.89649,23.17267 7.06268,10.48287 10.59402,21.79334 10.59402,34.20727 0,17.10364 -5.59129,31.44862 -16.47959,43.03496 -10.29974,11.0346 -26.77932,18.2071 -49.43875,20.96575 7.65124,4.41384 14.12536,8.551816 18.83381,12.138063 8.53407,8.275953 17.06814,18.482962 25.89649,30.896892 L 438.37288,0.05671162 H 399.52815 L 368.9232,-48.495548 c -9.4169,-13.793256 -17.36242,-24.551995 -23.54226,-32.000353 -5.59129,-8.000089 -10.59402,-13.517391 -15.30247,-16.551907 -4.70845,-2.758651 -9.41691,-4.689712 -14.12536,-5.517302 -3.23706,-0.55173 -8.82835,-1.10346 -16.47958,-1.10346 H 262.98302 V 0.05671162 Z M 262.98302,-131.25508 h 67.09545 c 14.12536,0 25.01365,-1.37933 32.95917,-4.41384 7.65123,-2.75866 13.5368,-7.1725 17.65669,-13.24153 4.70846,-6.62076 7.06268,-13.79326 7.06268,-22.06921 0,-11.0346 -4.41417,-19.86229 -12.94824,-26.48305 -7.94551,-7.17249 -20.59948,-11.0346 -37.66762,-11.0346 H 262.98302 Z M 568.1496,0.05671162 H 538.72178 V -183.11772 c -7.06268,6.62076 -16.18531,13.24152 -27.07361,19.86228 -11.18257,6.62077 -21.18803,11.58634 -30.60494,14.34499 v -27.58651 c 16.47959,-7.17249 30.60494,-16.55191 42.37607,-27.58651 11.77114,-11.03461 20.30521,-21.24162 25.89649,-30.89689 H 568.1496 Z M 621.1197,65.160878 V 44.19513 H 811.81203 V 65.160878 Z M 890.97289,0.05671162 V -207.39385 h -76.51236 v -27.58651 H 999.2673 v 27.58651 H 921.57783 V 0.05671162 Z m 121.53691,0 89.4606,-235.03707162 h 32.9592 l 96.5233,235.03707162 h -35.3134 L 1169.0659,-70.564757 h -98.8775 L 1045.469,0.05671162 Z m 67.0955,-96.00105962 h 78.8666 l -23.5423,-65.104162 c -7.9455,-19.86229 -13.5368,-35.86247 -16.4796,-48.55226 -3.2371,14.89671 -7.6512,29.51756 -12.9482,44.13841 z M 1253.5237,0.05671162 V -234.98036 h 89.4606 c 14.714,0 26.4851,0.82759 35.3134,2.20692 10.8883,2.20692 20.3052,6.34489 28.2507,12.13806 7.6513,5.24144 14.1254,12.6898 18.8339,22.06921 4.7084,9.65528 7.0626,20.41402 7.0626,32.00035 0,19.86229 -6.4741,36.96593 -18.8338,50.75918 -12.6539,14.06912 -35.3134,20.965753 -68.2725,20.965753 h -60.0328 V 0.05671162 Z M 1285.3058,-123.53086 h 60.0328 c 20.3052,0 34.4305,-3.58625 42.376,-11.0346 8.5341,-7.1725 12.9483,-17.65537 12.9483,-30.8969 0,-10.20701 -2.3542,-18.75882 -7.0627,-25.37959 -4.7084,-7.17249 -11.4768,-12.13806 -20.0109,-14.34498 -4.7085,-1.37933 -14.1254,-2.20692 -28.2507,-2.20692 h -60.0328 z m 0,0"
       style="fill:#ff0000;fill-opacity:1;fill-rule:nonzero;stroke:none"
       aria-label="TR1_TAP"
       transform="matrix(0.013274,0,0,0.01416,3156.9379,355.83513)" />
    <path
       id="path10009"
       d="M 984.96002,373.12 H 953.76001"
       style="fill:none;stroke:#800040;stroke-width:0.48;stroke-linecap:round;stroke-linejoin:round;stroke-miterlimit:10;stroke-dasharray:none;stroke-opacity:1"
       transform="translate(2285.1201)" />
    <path
       id="path10010"
       d="m 953.76001,373.12 v 0"
       style="fill:none;stroke:#800040;stroke-width:0.48;stroke-linecap:round;stroke-linejoin:round;stroke-miterlimit:10;stroke-dasharray:none;stroke-opacity:1"
       transform="translate(2285.1201)" />
    <path
       id="path10011"
       d="M 84.81863,-0.13236645 V -207.58293 H 8.3062754 v -27.58651 H 193.11304 v 27.58651 H 115.42357 V -0.13236645 Z m 147.43342,0 V -235.16944 h 103.58596 c 21.18804,0 36.78479,2.20692 47.08453,6.62076 10.88829,4.41384 19.42236,12.13806 25.89649,23.17267 7.06267,10.48287 10.59401,21.79334 10.59401,34.20727 0,17.10364 -5.59128,31.44863 -16.47958,43.03496 -10.29974,11.03461 -26.77932,18.2071 -49.43875,20.96575 7.65123,4.41384 14.12536,8.551818 18.83381,12.138065 8.53407,8.275953 17.06814,18.482962 25.89649,30.896892 l 40.02184,64.00070655 H 399.40212 L 368.79718,-48.684626 c -9.41691,-13.793256 -17.36242,-24.551995 -23.54226,-32.000353 -5.59129,-8.000089 -10.59402,-13.517391 -15.30248,-16.551907 -4.70845,-2.758651 -9.4169,-4.689704 -14.12535,-5.517304 -3.23706,-0.55173 -8.82835,-1.10346 -16.47959,-1.10346 H 262.85699 V -0.13236645 Z M 262.85699,-131.44416 h 67.09545 c 14.12536,0 25.01366,-1.37933 32.95917,-4.41384 7.65124,-2.75865 13.5368,-7.17249 17.6567,-13.24153 4.70845,-6.62076 7.06268,-13.79325 7.06268,-22.06921 0,-11.0346 -4.41418,-19.86228 -12.94825,-26.48305 -7.94551,-7.17249 -20.59948,-11.0346 -37.66762,-11.0346 H 262.85699 Z M 610.39965,-27.718878 V -0.13236645 H 455.02072 c 0,-6.62076275 1.17711,-13.24152555 3.53134,-19.86228855 3.82561,-10.207009 10.00546,-20.414018 18.83381,-30.896892 8.53407,-10.207009 21.18803,-22.345074 37.66762,-36.414195 25.89649,-20.414018 42.96463,-36.690058 51.79298,-48.552258 9.4169,-12.41393 14.12535,-24.27613 14.12535,-35.31074 0,-11.58633 -4.41417,-21.24161 -12.94824,-28.68997 -7.94551,-8.00009 -18.53953,-12.13806 -31.78206,-12.13806 -14.12535,0 -25.60221,4.41384 -34.13628,13.24152 -7.94551,8.27596 -11.77113,19.58643 -11.77113,34.20728 l -29.42783,-3.31039 c 2.35423,-22.0692 9.71119,-38.62111 22.36515,-49.65572 13.24253,-11.58633 31.1935,-17.65536 54.14721,-17.65536 21.77659,0 39.43329,6.34489 52.97009,18.75882 13.24252,11.8622 20.01092,27.31065 20.01092,46.34534 0,8.82769 -2.05994,18.2071 -5.88556,27.58652 -4.1199,8.82768 -10.59402,18.48296 -20.01093,28.68997 -8.82834,9.65528 -23.24798,23.172666 -43.55318,40.828034 -17.36242,14.896716 -28.83927,24.82786 -34.13628,29.793432 -4.70846,5.241437 -8.82835,10.482874 -11.77114,15.448446 z M 621.28795,64.9718 V 44.006052 H 811.98028 V 64.9718 Z M 890.84686,-0.13236645 V -207.58293 h -76.51235 v -27.58651 h 184.80676 v 27.58651 H 921.4518 V -0.13236645 Z m 121.83124,0 89.4606,-235.03707355 h 32.9591 l 96.5233,235.03707355 h -35.3134 L 1169.2341,-70.753835 h -98.8775 l -24.7194,70.62146855 z m 67.0954,-96.00105955 h 78.8666 l -23.5423,-65.104164 c -7.9455,-19.86229 -13.5368,-35.86247 -16.4795,-48.55226 -3.2371,14.89671 -7.6513,29.51756 -12.9483,44.13842 z m 173.6242,96.00105955 V -235.16944 h 89.4606 c 14.7139,0 26.4851,0.82759 35.3134,2.20692 10.8883,2.20692 20.3052,6.3449 28.2507,12.13806 7.6513,5.24144 14.1254,12.6898 18.8338,22.06921 4.7085,9.65528 7.0627,20.41402 7.0627,32.00036 0,19.86228 -6.4741,36.96592 -18.8338,50.75918 -12.654,14.06912 -35.3134,20.965745 -68.2726,20.965745 h -60.0327 V -0.13236645 Z M 1285.1798,-123.71994 h 60.0327 c 20.3052,0 34.4306,-3.58624 42.3761,-11.0346 8.5341,-7.17249 12.9483,-17.65537 12.9483,-30.89689 0,-10.20701 -2.3543,-18.75883 -7.0627,-25.37959 -4.7085,-7.1725 -11.4769,-12.13807 -20.0109,-14.34499 -4.7085,-1.37933 -14.1254,-2.20692 -28.2508,-2.20692 h -60.0327 z m 0,0"
       style="fill:#ff0000;fill-opacity:1;fill-rule:nonzero;stroke:none"
       aria-label="TR2_TAP"
       transform="matrix(0.013274,0,0,0.01416,3245.0958,371.35734)" />
    <path
       id="path10012"
       d="M 896.79999,373.12 H 865.59998"
       style="fill:none;stroke:#800040;stroke-width:0.48;stroke-linecap:round;stroke-linejoin:round;stroke-miterlimit:10;stroke-dasharray:none;stroke-opacity:1"
       transform="translate(2285.1201)" />
    <path
       id="path10013"
       d="m 865.59998,373.12 v 0"
       style="fill:none;stroke:#800040;stroke-width:0.48;stroke-linecap:round;stroke-linejoin:round;stroke-miterlimit:10;stroke-dasharray:none;stroke-opacity:1"
       transform="translate(2285.1201)" />
    <path
       id="path10014"
       d="M 84.650377,-0.13236645 V -207.58293 H 8.1380219 v -27.58651 H 192.94479 v 27.58651 H 115.25532 V -0.13236645 Z m 147.727703,0 V -235.16944 h 103.58596 c 21.18803,0 36.78478,2.20692 47.08452,6.62076 10.8883,4.41384 19.42237,12.13806 25.89649,23.17267 7.06268,10.48287 10.59402,21.79334 10.59402,34.20727 0,17.10364 -5.59129,31.44863 -16.47959,43.03496 -10.29974,11.03461 -26.77932,18.2071 -49.43875,20.96575 7.65124,4.41384 14.12536,8.551818 18.83381,12.138065 8.53407,8.275953 17.06814,18.482962 25.89649,30.896892 l 40.02185,64.00070655 H 399.52815 L 368.9232,-48.684626 c -9.4169,-13.793256 -17.36242,-24.551995 -23.54226,-32.000353 -5.59129,-8.000089 -10.59402,-13.517391 -15.30247,-16.551907 -4.70845,-2.758651 -9.41691,-4.689704 -14.12536,-5.517304 -3.23706,-0.55173 -8.82835,-1.10346 -16.47958,-1.10346 H 262.98302 V -0.13236645 Z M 262.98302,-131.44416 h 67.09545 c 14.12536,0 25.01365,-1.37933 32.95917,-4.41384 7.65123,-2.75865 13.5368,-7.17249 17.65669,-13.24153 4.70846,-6.62076 7.06268,-13.79325 7.06268,-22.06921 0,-11.0346 -4.41417,-19.86228 -12.94824,-26.48305 -7.94551,-7.17249 -20.59948,-11.0346 -37.66762,-11.0346 h -74.15813 z m 196.87217,69.518008 28.25072,-4.413842 c 2.94278,17.103637 8.53407,29.241702 16.47958,36.414195 8.53407,6.620763 18.24526,9.931144 29.42783,9.931144 13.24253,0 24.71938,-4.413841 34.13628,-13.241525 9.41691,-9.379414 14.12536,-21.241614 14.12536,-35.310734 0,-13.241526 -4.41417,-24.27613 -12.94824,-33.103816 -8.82835,-8.82768 -19.71665,-13.24152 -32.95917,-13.24152 -5.59129,0 -12.35969,1.10346 -20.01092,3.31038 l 3.53134,-25.37959 c 1.47139,0.82759 2.94278,1.10346 4.70845,1.10346 11.77113,0 22.36515,-3.31038 31.78205,-9.93115 10.00546,-6.62076 15.30247,-16.5519 15.30247,-29.79343 0,-10.20701 -3.53134,-18.75883 -10.59401,-25.37959 -7.06268,-7.17249 -16.18531,-11.0346 -27.07361,-11.0346 -11.77113,0 -21.77659,3.86211 -29.42783,11.0346 -7.06267,6.62076 -11.47685,17.10364 -12.94824,30.89689 l -29.42783,-4.41384 c 3.82562,-19.86229 11.77113,-34.759 23.54226,-45.24188 12.35969,-10.20701 28.25072,-15.44844 47.08453,-15.44844 12.35969,0 24.13082,2.75865 35.31339,7.72422 10.8883,5.24144 19.12809,12.6898 24.71938,22.06921 5.29701,9.65528 8.23979,19.86229 8.23979,30.89689 0,10.48288 -2.94278,19.58643 -8.23979,27.58651 -5.59129,8.27596 -13.5368,14.89672 -23.54226,19.86229 13.24252,3.03452 23.83654,9.65528 31.78205,19.86229 7.65124,10.482874 11.77113,22.896804 11.77113,37.517655 0,20.689884 -7.65123,38.345251 -22.36515,52.966102 -15.00819,14.0691205 -33.842,20.9657484 -56.50143,20.9657484 -20.59948,0 -37.66762,-6.0690325 -51.79298,-18.7588274 -13.5368,-12.41393 -20.89375,-28.138242 -22.36515,-47.4488 z M 621.1197,64.9718 V 44.006052 H 811.81203 V 64.9718 Z M 890.97289,-0.13236645 V -207.58293 h -76.51236 v -27.58651 H 999.2673 v 27.58651 H 921.57783 V -0.13236645 Z m 121.53691,0 89.4606,-235.03707355 h 32.9592 l 96.5233,235.03707355 h -35.3134 L 1169.0659,-70.753835 h -98.8775 l -24.7194,70.62146855 z m 67.0955,-96.00105955 h 78.8666 l -23.5423,-65.104164 c -7.9455,-19.86229 -13.5368,-35.86247 -16.4796,-48.55226 -3.2371,14.89671 -7.6512,29.51756 -12.9482,44.13842 z m 173.9184,96.00105955 V -235.16944 h 89.4606 c 14.714,0 26.4851,0.82759 35.3134,2.20692 10.8883,2.20692 20.3052,6.3449 28.2507,12.13806 7.6513,5.24144 14.1254,12.6898 18.8339,22.06921 4.7084,9.65528 7.0626,20.41402 7.0626,32.00036 0,19.86228 -6.4741,36.96592 -18.8338,50.75918 -12.6539,14.06912 -35.3134,20.965745 -68.2725,20.965745 h -60.0328 V -0.13236645 Z M 1285.3058,-123.71994 h 60.0328 c 20.3052,0 34.4305,-3.58624 42.376,-11.0346 8.5341,-7.17249 12.9483,-17.65537 12.9483,-30.89689 0,-10.20701 -2.3542,-18.75883 -7.0627,-25.37959 -4.7084,-7.1725 -11.4768,-12.13807 -20.0109,-14.34499 -4.7085,-1.37933 -14.1254,-2.20692 -28.2507,-2.20692 h -60.0328 z m 0,0"
       style="fill:#ff0000;fill-opacity:1;fill-rule:nonzero;stroke:none"
       aria-label="TR3_TAP"
       transform="matrix(0.013274,0,0,0.01416,3156.9379,371.35734)" />
    <path
       id="path10015"
       d="M 984.96002,357.60001 H 953.76001"
       style="fill:none;stroke:#800040;stroke-width:0.48;stroke-linecap:round;stroke-linejoin:round;stroke-miterlimit:10;stroke-dasharray:none;stroke-opacity:1"
       transform="translate(2285.1201)" />
    <path
       id="path10016"
       d="m 953.76001,357.60001 v 0"
       style="fill:none;stroke:#800040;stroke-width:0.48;stroke-linecap:round;stroke-linejoin:round;stroke-miterlimit:10;stroke-dasharray:none;stroke-opacity:1"
       transform="translate(2285.1201)" />
    <path
       id="path10017"
       d="M 84.81863,0.05671162 V -207.39385 H 8.3062754 v -27.58651 H 193.11304 v 27.58651 H 115.42357 V 0.05671162 Z m 147.43342,0 V -234.98036 h 103.58596 c 21.18804,0 36.78479,2.20692 47.08453,6.62076 10.88829,4.41384 19.42236,12.13806 25.89649,23.17267 7.06267,10.48287 10.59401,21.79334 10.59401,34.20727 0,17.10364 -5.59128,31.44862 -16.47958,43.03496 -10.29974,11.0346 -26.77932,18.2071 -49.43875,20.96575 7.65123,4.41384 14.12536,8.551816 18.83381,12.138063 8.53407,8.275953 17.06814,18.482962 25.89649,30.896892 L 438.24685,0.05671162 H 399.40212 L 368.79718,-48.495548 c -9.41691,-13.793256 -17.36242,-24.551995 -23.54226,-32.000353 -5.59129,-8.000089 -10.59402,-13.517391 -15.30248,-16.551907 -4.70845,-2.758651 -9.4169,-4.689712 -14.12535,-5.517302 -3.23706,-0.55173 -8.82835,-1.10346 -16.47959,-1.10346 H 262.85699 V 0.05671162 Z M 262.85699,-131.25508 h 67.09545 c 14.12536,0 25.01366,-1.37933 32.95917,-4.41384 7.65124,-2.75866 13.5368,-7.1725 17.6567,-13.24153 4.70845,-6.62076 7.06268,-13.79326 7.06268,-22.06921 0,-11.0346 -4.41418,-19.86229 -12.94825,-26.48305 -7.94551,-7.17249 -20.59948,-11.0346 -37.66762,-11.0346 h -74.15813 z m 196.87218,15.44844 c 0,-27.86237 2.6485,-50.20745 8.23979,-67.31108 5.29701,-16.82778 13.5368,-29.79344 24.71938,-38.62112 11.77113,-8.82768 25.89649,-13.24152 42.37607,-13.24152 12.35969,0 23.54226,2.75865 32.95917,7.72422 10.00546,4.41384 17.95098,11.58633 23.54226,20.96575 6.17985,9.65528 10.8883,21.51748 14.12536,35.31073 3.82562,14.06912 5.88557,32.55208 5.88557,55.17302 0,28.138246 -2.94279,50.48332 -8.2398,67.311092 -5.59128,17.103637 -14.12535,30.345162 -25.89648,39.724576 -11.18258,8.82768362 -25.30794,13.2415254 -42.37608,13.2415254 -22.07087,0 -39.72757,-8.0000882 -52.97009,-24.2761304 -15.00819,-19.862288 -22.36515,-51.862641 -22.36515,-96.001063 z m 29.42783,0 c 0,39.17285 4.11989,64.828306 12.94824,77.242236 9.41691,12.689795 20.30521,18.758827 32.95917,18.758827 13.24252,0 24.13082,-6.069032 32.95917,-18.758827 9.41691,-13.241526 14.12536,-38.896981 14.12536,-77.242236 0,-38.06938 -4.70845,-63.44897 -14.12536,-76.13877 -8.82835,-13.24152 -19.71665,-19.86229 -32.95917,-19.86229 -13.5368,0 -24.13082,5.51731 -31.78205,16.55191 -9.41691,14.89672 -14.12536,41.37977 -14.12536,79.44915 z M 621.28795,65.160878 V 44.19513 H 811.98028 V 65.160878 Z M 890.84686,0.05671162 V -207.39385 h -76.51235 v -27.58651 h 184.80676 v 27.58651 H 921.4518 V 0.05671162 Z m 121.83124,0 89.4606,-235.03707162 h 32.9591 l 96.5233,235.03707162 h -35.3134 L 1169.2341,-70.564757 h -98.8775 l -24.7194,70.62146862 z m 67.0954,-96.00105962 h 78.8666 l -23.5423,-65.104162 c -7.9455,-19.86229 -13.5368,-35.86247 -16.4795,-48.55226 -3.2371,14.89671 -7.6513,29.51756 -12.9483,44.13841 z M 1253.3977,0.05671162 V -234.98036 h 89.4606 c 14.7139,0 26.4851,0.82759 35.3134,2.20692 10.8883,2.20692 20.3052,6.34489 28.2507,12.13806 7.6513,5.24144 14.1254,12.6898 18.8338,22.06921 4.7085,9.65528 7.0627,20.41402 7.0627,32.00035 0,19.86229 -6.4741,36.96593 -18.8338,50.75918 -12.654,14.06912 -35.3134,20.965753 -68.2726,20.965753 h -60.0327 V 0.05671162 Z M 1285.1798,-123.53086 h 60.0327 c 20.3052,0 34.4306,-3.58625 42.3761,-11.0346 8.5341,-7.1725 12.9483,-17.65537 12.9483,-30.8969 0,-10.20701 -2.3543,-18.75882 -7.0627,-25.37959 -4.7085,-7.17249 -11.4769,-12.13806 -20.0109,-14.34498 -4.7085,-1.37933 -14.1254,-2.20692 -28.2508,-2.20692 h -60.0327 z m 0,0"
       style="fill:#ff0000;fill-opacity:1;fill-rule:nonzero;stroke:none"
       aria-label="TR0_TAP"
       transform="matrix(0.013274,0,0,0.01416,3245.0958,355.83513)" />
  </g>
</svg>
